<?xml version="1.0" encoding="UTF-8"?>
<svg id="Layer_1" data-name="Layer 1" xmlns="http://www.w3.org/2000/svg" viewBox="0 0 392 296">
  <defs>
    <style>
      .cls-1 {
        fill: none;
        stroke: #cb393b;
        stroke-width: 3px;
      }
    </style>
  </defs>
  <path class="cls-1" d="M159.22,76.54c43.65-20.7,86.67-31.89,120.9-33.3,17.12-.71,31.96,1.03,43.56,5.2,11.59,4.16,19.85,10.69,24.04,19.53,4.19,8.83,4.02,19.36-.1,30.97-4.12,11.62-12.17,24.21-23.55,37.01-22.76,25.6-58.65,51.83-102.31,72.52-43.65,20.7-86.67,31.89-120.9,33.3-17.12.71-31.96-1.04-43.56-5.2-11.59-4.16-19.85-10.69-24.04-19.52-4.19-8.83-4.02-19.36.1-30.97,4.12-11.62,12.17-24.21,23.55-37.01,22.76-25.6,58.65-51.83,102.31-72.52Z"/>
  <path class="cls-1" d="M168.37,84.38c43.13-21.76,85.87-34,120.05-36.25,17.1-1.13,31.98.25,43.68,4.13,11.69,3.87,20.11,10.2,24.51,18.93,4.4,8.73,4.49,19.25.66,30.96-3.83,11.71-11.57,24.5-22.63,37.58-22.12,26.15-57.37,53.25-100.5,75-43.13,21.76-85.87,34-120.05,36.25-17.09,1.13-31.98-.25-43.68-4.13-11.69-3.88-20.11-10.2-24.51-18.93-4.4-8.73-4.49-19.25-.66-30.96,3.84-11.71,11.57-24.5,22.63-37.58,22.12-26.15,57.37-53.24,100.5-75Z"/>
</svg>