<svg xmlns="http://www.w3.org/2000/svg" xmlns:xlink="http://www.w3.org/1999/xlink" width="500" zoomAndPan="magnify" viewBox="0 0 375 374.999991" height="500" preserveAspectRatio="xMidYMid meet" version="1.0"><defs><clipPath id="236435c8fe"><path d="M 96 15.1875 L 215 15.1875 L 215 140 L 96 140 Z M 96 15.1875 " clip-rule="nonzero"/></clipPath><clipPath id="cb7c660ba3"><path d="M 211 116 L 369.621094 116 L 369.621094 287 L 211 287 Z M 211 116 " clip-rule="nonzero"/></clipPath><clipPath id="fdc0c78782"><path d="M 5.121094 144 L 192 144 L 192 337 L 5.121094 337 Z M 5.121094 144 " clip-rule="nonzero"/></clipPath></defs><g clip-path="url(#236435c8fe)"><path fill="#090000" d="M 213.691406 63.277344 C 213.761719 63.230469 213.828125 63.191406 213.894531 63.144531 C 215.070312 62.371094 214.671875 60.394531 213.15625 60.410156 C 208.257812 60.460938 203.304688 60.324219 198.421875 60.710938 C 197.226562 60.804688 196.027344 60.878906 194.832031 60.945312 C 190.644531 61.066406 186.457031 61.144531 182.273438 61.347656 C 179.621094 61.480469 176.972656 61.660156 174.320312 61.824219 C 173.308594 61.886719 172.84375 62.777344 172.925781 63.558594 C 172.90625 64.308594 173.367188 65.03125 174.328125 64.949219 C 179.207031 64.53125 184.046875 64.277344 188.941406 64.144531 C 191.097656 64.085938 193.246094 63.96875 195.394531 63.847656 C 198.503906 63.753906 201.609375 63.632812 204.71875 63.46875 C 205.292969 63.4375 205.867188 63.425781 206.4375 63.417969 C 206.636719 63.417969 206.835938 63.414062 207.035156 63.414062 C 207.375 63.414062 207.710938 63.417969 208.046875 63.421875 C 206.886719 64.144531 205.714844 64.847656 204.515625 65.523438 C 203.332031 66.191406 202.183594 66.800781 200.945312 67.359375 C 199.605469 67.960938 198.164062 68.476562 196.894531 69.222656 C 195.332031 70.148438 193.828125 71.1875 192.246094 72.078125 C 190.917969 72.828125 189.480469 73.429688 188.105469 74.09375 C 187.773438 74.253906 187.4375 74.410156 187.109375 74.574219 C 187.078125 74.589844 187.070312 74.597656 187.046875 74.609375 C 186.214844 74.882812 185.398438 75.234375 184.578125 75.542969 C 183.304688 76.027344 182.046875 76.519531 180.75 76.933594 C 179.082031 77.46875 177.191406 77.835938 175.628906 78.644531 C 173.972656 79.507812 172.363281 80.46875 170.730469 81.378906 C 170.125 81.714844 169.941406 82.398438 170.058594 83.035156 C 170.371094 84.785156 170.6875 86.53125 171.003906 88.28125 C 171.152344 89.109375 171.386719 89.921875 171.640625 90.726562 C 171.464844 90.882812 171.289062 91.039062 171.113281 91.191406 C 170.730469 91.519531 170.601562 92.144531 170.738281 92.617188 C 171.410156 94.960938 172.035156 97.304688 172.867188 99.59375 C 173.304688 100.804688 173.832031 102.015625 174.1875 103.253906 C 174.617188 104.734375 174.882812 106.28125 175.230469 107.78125 C 175.734375 109.976562 176.675781 112.066406 177.445312 114.175781 C 178.351562 116.65625 179.273438 119.03125 179.796875 121.617188 C 180.117188 123.210938 180.398438 124.804688 180.667969 126.398438 C 179.285156 125.257812 177.914062 124.105469 176.550781 122.945312 C 174.839844 121.335938 173.128906 119.726562 171.410156 118.125 C 169.632812 116.46875 168.230469 114.480469 166.578125 112.707031 C 164.671875 110.664062 162.667969 108.765625 160.855469 106.640625 C 159.117188 104.597656 157.304688 102.667969 155.449219 100.746094 C 155.136719 100.347656 154.824219 99.953125 154.511719 99.550781 C 154.050781 98.964844 152.898438 98.996094 152.4375 99.550781 C 150.390625 102.015625 148.339844 104.464844 146.21875 106.863281 C 145.242188 107.96875 144.359375 109.03125 143.535156 110.253906 C 142.707031 111.476562 141.914062 112.742188 141.035156 113.933594 C 138.777344 116.429688 136.652344 119.027344 134.546875 121.65625 C 132.796875 123.832031 131.292969 126.183594 129.613281 128.410156 C 128.882812 129.375 128.15625 130.339844 127.425781 131.304688 C 127.160156 131.65625 126.894531 132.003906 126.632812 132.355469 C 126.613281 132.375 126.59375 132.390625 126.5625 132.425781 C 126.496094 132.492188 126.4375 132.566406 126.371094 132.632812 C 126.660156 131.324219 126.941406 130.011719 127.191406 128.691406 C 127.457031 127.28125 127.710938 125.933594 128.128906 124.566406 C 128.609375 122.996094 129.125 121.433594 129.566406 119.847656 C 131.277344 113.699219 132.570312 107.449219 134.570312 101.375 C 135.773438 97.71875 137.050781 94.113281 138.398438 90.507812 C 138.617188 89.921875 138.257812 89.136719 137.726562 88.847656 C 135.316406 87.550781 132.914062 86.246094 130.476562 85 C 129.1875 84.34375 127.910156 83.59375 126.566406 83.046875 C 124.964844 82.394531 123.351562 81.773438 121.746094 81.136719 C 121.527344 81.054688 121.3125 80.964844 121.097656 80.882812 C 121.078125 80.871094 121.070312 80.863281 121.039062 80.851562 C 120.316406 80.457031 119.566406 80.113281 118.828125 79.746094 C 117.679688 79.175781 116.542969 78.566406 115.371094 78.042969 C 112.617188 76.820312 109.863281 75.621094 107.140625 74.332031 C 105.84375 73.71875 104.574219 73.074219 103.214844 72.605469 C 103.140625 72.578125 103.0625 72.550781 102.988281 72.527344 C 103 72.523438 103.011719 72.519531 103.027344 72.515625 C 103.28125 72.460938 103.632812 72.441406 103.871094 72.328125 C 103.875 72.324219 103.875 72.324219 103.878906 72.324219 C 103.898438 72.320312 103.914062 72.316406 103.933594 72.316406 C 104.910156 72.199219 105.882812 72.074219 106.855469 71.957031 C 109.671875 71.609375 112.511719 71.203125 115.339844 71.039062 C 118.699219 70.847656 122.050781 70.726562 125.40625 70.492188 C 126.8125 70.394531 128.195312 70.199219 129.589844 70.003906 C 130.546875 69.867188 131.5 69.734375 132.457031 69.601562 C 132.488281 69.597656 132.515625 69.59375 132.542969 69.59375 C 132.539062 69.59375 132.535156 69.59375 132.53125 69.589844 C 132.539062 69.59375 132.542969 69.589844 132.550781 69.59375 C 132.679688 69.582031 132.769531 69.589844 132.804688 69.597656 C 133.03125 69.585938 133.273438 69.539062 133.480469 69.523438 C 137.089844 69.273438 140.640625 69.171875 144.261719 69.144531 C 144.859375 69.136719 145.554688 68.695312 145.671875 68.066406 C 146.320312 64.589844 146.917969 61.167969 147.320312 57.65625 C 147.667969 54.640625 148.125 51.535156 148.070312 48.5 C 148.050781 47.375 148.03125 46.25 148.011719 45.125 C 148 44.632812 147.992188 44.144531 147.984375 43.652344 C 147.980469 43.492188 147.988281 43.328125 147.972656 43.167969 C 148.234375 42.503906 148.332031 41.691406 148.5 41.011719 C 148.769531 39.945312 149.039062 38.875 149.308594 37.804688 C 149.71875 36.175781 149.636719 34.390625 149.738281 32.722656 C 149.765625 32.257812 149.792969 31.792969 149.820312 31.324219 C 149.828125 31.226562 149.832031 31.125 149.839844 31.027344 C 150.125 30.390625 150.164062 29.460938 150.304688 28.796875 C 150.675781 27.0625 150.957031 25.285156 151.484375 23.589844 C 151.65625 23.027344 151.828125 22.464844 152.003906 21.902344 C 152.503906 23.523438 152.992188 25.144531 153.460938 26.773438 C 153.863281 28.171875 154.273438 29.433594 154.886719 30.75 C 155.351562 31.757812 155.820312 32.765625 156.285156 33.773438 C 156.433594 34.089844 156.574219 34.410156 156.726562 34.722656 C 156.734375 34.75 156.738281 34.777344 156.75 34.828125 C 156.871094 35.273438 157.007812 35.707031 157.136719 36.148438 C 157.4375 37.539062 157.8125 38.945312 158.214844 40.28125 C 158.664062 41.773438 159.394531 43.222656 159.984375 44.667969 C 160.644531 46.28125 161.273438 47.925781 161.847656 49.582031 C 162.011719 50.09375 162.179688 50.597656 162.351562 51.105469 C 162.5 51.578125 162.648438 52.046875 162.785156 52.519531 C 163.273438 54.226562 163.648438 56.027344 164.285156 57.6875 C 164.710938 58.785156 165.175781 59.871094 165.640625 60.953125 C 165.871094 61.679688 166.109375 62.402344 166.335938 63.132812 C 166.589844 63.972656 167.339844 64.246094 168.011719 64.125 C 168.121094 64.121094 168.230469 64.109375 168.347656 64.078125 C 169.035156 63.894531 169.679688 63.003906 169.371094 62.273438 C 169.074219 61.570312 168.78125 60.867188 168.484375 60.164062 C 167.75 57.816406 166.996094 55.488281 166.167969 53.167969 C 165.195312 50.441406 164.414062 47.636719 163.390625 44.933594 C 162.726562 43.179688 161.972656 41.457031 161.332031 39.695312 C 160.882812 38.460938 160.523438 37.183594 160.148438 35.917969 C 160.09375 35.667969 160.035156 35.414062 159.976562 35.164062 C 159.628906 33.761719 159.105469 32.523438 158.539062 31.191406 C 158.125 30.222656 157.710938 29.25 157.300781 28.277344 C 157.28125 28.242188 157.265625 28.203125 157.25 28.164062 C 157.25 28.164062 157.253906 28.167969 157.253906 28.164062 C 157.226562 27.902344 157.09375 27.613281 157.019531 27.363281 C 156.519531 25.648438 156.109375 23.875 155.496094 22.199219 C 154.96875 20.757812 154.390625 19.335938 153.820312 17.910156 C 153.699219 17.527344 153.585938 17.144531 153.464844 16.761719 C 153.230469 16.023438 152.636719 15.699219 152.046875 15.726562 C 151.417969 15.648438 150.773438 15.957031 150.527344 16.746094 C 150.375 17.238281 150.222656 17.730469 150.070312 18.222656 C 149.625 19.375 149.179688 20.527344 148.730469 21.675781 C 148.234375 22.953125 148.109375 24.363281 147.859375 25.707031 C 147.601562 27.109375 147.339844 28.320312 146.847656 29.648438 C 146.332031 31.042969 145.777344 32.425781 145.308594 33.832031 C 144.730469 35.574219 144.113281 37.324219 143.621094 39.09375 C 143.210938 40.582031 142.976562 42.140625 142.667969 43.652344 C 142.121094 46.304688 141.511719 48.953125 140.824219 51.570312 C 140.382812 53.242188 140.042969 54.980469 139.476562 56.613281 C 138.949219 58.113281 138.363281 59.597656 137.789062 61.085938 C 135.476562 61.6875 133.179688 62.3125 130.824219 62.726562 C 127.816406 63.253906 124.863281 63.867188 121.886719 64.546875 C 119.527344 65.085938 117.132812 65.476562 114.757812 65.925781 C 113.085938 66.242188 111.417969 66.5625 109.75 66.878906 C 108.625 67.09375 107.597656 67.550781 106.527344 67.957031 C 104.171875 68.855469 101.808594 69.601562 99.410156 70.316406 C 98.691406 70.480469 97.972656 70.648438 97.253906 70.808594 C 95.75 71.148438 95.972656 73.195312 97.253906 73.640625 C 97.394531 73.6875 97.535156 73.738281 97.675781 73.785156 C 101.644531 75.730469 105.605469 77.738281 109.714844 79.367188 C 111.050781 79.894531 112.378906 80.449219 113.722656 80.957031 C 113.878906 81.078125 114.109375 81.15625 114.285156 81.246094 C 114.964844 81.59375 115.644531 81.941406 116.324219 82.289062 C 118.5625 83.441406 120.726562 84.664062 122.902344 85.925781 C 124.785156 87.015625 126.765625 87.90625 128.734375 88.816406 C 128.542969 90.222656 128.355469 91.625 128.164062 93.03125 C 127.957031 94.546875 127.511719 96.035156 127.15625 97.523438 C 126.46875 100.421875 125.984375 103.351562 125.527344 106.296875 C 124.953125 109.972656 124.453125 113.628906 124.054688 117.328125 C 123.742188 120.210938 123.589844 123.117188 123.238281 125.996094 C 123.011719 127.859375 122.6875 129.730469 122.566406 131.601562 C 122.449219 133.390625 122.414062 135.191406 122.351562 136.984375 C 122.3125 137.152344 122.277344 137.320312 122.234375 137.488281 C 121.964844 138.613281 123.296875 139.957031 124.390625 139.144531 C 125.789062 138.105469 127.191406 137.066406 128.59375 136.023438 C 129.09375 135.65625 129.578125 135.332031 129.949219 134.828125 C 130.488281 134.09375 131.011719 133.347656 131.546875 132.605469 C 133.316406 130.144531 135.296875 127.773438 136.949219 125.234375 C 137.945312 123.703125 138.808594 122.066406 139.730469 120.492188 C 140.488281 119.199219 141.546875 118.046875 142.460938 116.863281 C 142.761719 116.472656 143.050781 116.074219 143.339844 115.675781 C 143.90625 114.96875 144.453125 114.25 144.996094 113.507812 C 145.613281 112.65625 146.230469 111.808594 146.847656 110.957031 C 146.953125 110.808594 147.441406 110.1875 146.941406 110.808594 C 147.09375 110.617188 147.246094 110.425781 147.394531 110.234375 C 149.367188 107.742188 151.390625 105.351562 153.488281 102.984375 C 154.707031 104.5625 155.929688 106.136719 157.285156 107.597656 C 159.347656 109.820312 161.449219 111.933594 163.636719 114.03125 C 165.398438 115.71875 166.652344 117.839844 168.335938 119.589844 C 170.257812 121.582031 172.421875 123.398438 174.566406 125.148438 C 174.738281 125.292969 174.910156 125.4375 175.085938 125.582031 C 177.261719 127.625 179.542969 129.484375 181.859375 131.371094 C 182.707031 132.058594 184.539062 131.742188 184.363281 130.332031 C 184.132812 128.519531 183.90625 126.707031 183.675781 124.890625 C 183.488281 123.410156 183.09375 121.988281 182.730469 120.535156 C 181.996094 117.589844 181.542969 114.550781 180.738281 111.628906 C 180.230469 109.773438 179.539062 107.964844 179.003906 106.117188 C 178.570312 104.621094 178.316406 103.050781 177.988281 101.527344 C 177.378906 98.726562 176.359375 96.046875 175.519531 93.304688 C 175.359375 92.78125 175.183594 92.257812 175.007812 91.730469 C 175.773438 91.089844 176.535156 90.445312 177.257812 89.761719 C 177.265625 89.757812 177.265625 89.757812 177.273438 89.75 C 177.660156 89.492188 178.039062 89.214844 178.417969 88.945312 C 179.355469 88.285156 180.289062 87.628906 181.222656 86.96875 C 183.824219 85.140625 186.285156 83.089844 188.777344 81.113281 C 189.441406 80.589844 190.113281 80.078125 190.769531 79.539062 C 190.878906 79.496094 190.992188 79.398438 191.089844 79.335938 C 191.507812 79.074219 191.929688 78.808594 192.347656 78.542969 C 193.761719 77.648438 195.203125 76.816406 196.5 75.757812 C 197.792969 74.703125 199.074219 73.632812 200.382812 72.597656 C 201.75 71.519531 203.105469 70.335938 204.542969 69.351562 C 204.480469 69.414062 205.042969 69.09375 205.191406 69.007812 C 205.726562 68.703125 206.257812 68.394531 206.789062 68.089844 C 207.660156 67.59375 208.578125 67.136719 209.417969 66.582031 C 210.875 65.621094 212.222656 64.429688 213.609375 63.363281 C 213.640625 63.335938 213.664062 63.304688 213.691406 63.277344 Z M 147.976562 43.160156 C 147.972656 43.15625 147.976562 43.15625 147.972656 43.152344 C 147.949219 42.90625 148.042969 42.921875 147.976562 43.160156 Z M 132.871094 65.335938 C 134.171875 65.105469 135.445312 64.714844 136.726562 64.386719 C 137.523438 64.179688 138.34375 64.011719 139.128906 63.769531 C 139.941406 63.515625 140.207031 62.929688 140.480469 62.207031 C 141.101562 60.5625 141.796875 58.929688 142.351562 57.261719 C 142.820312 55.847656 143.125 54.355469 143.503906 52.914062 C 144.078125 50.714844 144.617188 48.5 145.097656 46.273438 C 145.101562 46.371094 145.105469 46.464844 145.105469 46.558594 C 145.160156 49.652344 144.953125 52.734375 144.601562 55.8125 C 144.457031 57.0625 144.3125 58.3125 144.167969 59.566406 C 144.113281 60.070312 144.050781 60.578125 143.996094 61.085938 C 143.988281 61.132812 143.988281 61.152344 143.984375 61.183594 C 143.980469 61.203125 143.976562 61.214844 143.96875 61.25 C 143.613281 62.894531 143.332031 64.5625 143.039062 66.21875 C 140.3125 66.246094 137.605469 66.300781 134.878906 66.492188 C 133.472656 66.589844 132.097656 66.710938 130.699219 66.90625 C 129.628906 67.058594 128.554688 67.207031 127.484375 67.359375 C 127.191406 67.398438 126.898438 67.4375 126.601562 67.480469 C 126.566406 67.480469 126.511719 67.484375 126.410156 67.488281 C 124.359375 67.589844 122.308594 67.703125 120.261719 67.824219 C 124.457031 66.96875 128.648438 66.074219 132.871094 65.335938 Z M 127.472656 112.828125 C 127.472656 112.816406 127.472656 112.816406 127.472656 112.804688 C 127.539062 112.414062 127.59375 112.023438 127.652344 111.632812 C 127.832031 110.476562 128.007812 109.320312 128.1875 108.167969 C 128.621094 105.339844 128.992188 102.476562 129.652344 99.695312 C 130.085938 97.886719 130.636719 96.070312 130.933594 94.238281 C 131.214844 92.476562 131.425781 90.703125 131.65625 88.933594 C 132.828125 89.554688 134 90.179688 135.167969 90.808594 C 133.117188 96.296875 131.070312 101.859375 129.667969 107.550781 C 128.808594 111.039062 127.941406 114.515625 127.023438 117.988281 C 126.96875 118.203125 126.90625 118.417969 126.84375 118.632812 C 127.042969 116.699219 127.292969 114.765625 127.472656 112.828125 Z M 188.148438 77.894531 C 186.847656 78.925781 185.554688 79.964844 184.246094 80.984375 C 183.410156 81.636719 182.566406 82.285156 181.726562 82.933594 C 181.324219 83.246094 180.925781 83.558594 180.523438 83.871094 C 180.386719 83.972656 180.253906 84.078125 180.117188 84.183594 C 179.867188 84.375 180.015625 84.1875 180.242188 84.085938 C 179.375 84.480469 178.542969 85.28125 177.761719 85.832031 C 176.996094 86.371094 176.199219 86.890625 175.457031 87.464844 C 174.984375 87.832031 174.527344 88.214844 174.070312 88.605469 C 174.019531 88.402344 173.960938 88.203125 173.917969 88 C 173.597656 86.484375 173.347656 84.953125 173.085938 83.425781 C 174.28125 82.757812 175.480469 82.089844 176.675781 81.421875 C 176.78125 81.363281 176.894531 81.308594 177.007812 81.25 C 176.902344 81.285156 176.914062 81.21875 177.058594 81.191406 C 177.085938 81.1875 177.113281 81.175781 177.136719 81.171875 C 177.179688 81.144531 177.226562 81.121094 177.265625 81.09375 C 177.21875 81.128906 177.191406 81.140625 177.15625 81.164062 C 177.289062 81.128906 177.425781 81.074219 177.554688 81.035156 C 178.503906 80.730469 179.449219 80.429688 180.398438 80.125 C 183.136719 79.253906 185.945312 78.347656 188.546875 77.128906 C 189.261719 76.796875 189.976562 76.460938 190.691406 76.121094 C 189.820312 76.679688 188.964844 77.25 188.148438 77.894531 Z M 188.148438 77.894531 " fill-opacity="1" fill-rule="nonzero"/></g><g clip-path="url(#cb7c660ba3)"><path fill="#090000" d="M 368.175781 198.65625 C 366.257812 198.238281 364.3125 197.890625 362.410156 197.402344 C 361.300781 197.121094 360.210938 196.679688 359.128906 196.238281 C 358.960938 195.933594 358.6875 195.675781 358.269531 195.550781 C 355.714844 194.789062 353.175781 193.953125 350.582031 193.351562 C 347.417969 192.613281 344.335938 191.800781 341.222656 190.882812 C 338.753906 190.152344 336.160156 190.070312 333.679688 189.425781 C 331.957031 188.980469 330.265625 188.351562 328.570312 187.816406 C 327.453125 187.464844 326.324219 187.457031 325.164062 187.402344 C 321.980469 186.660156 318.757812 186.035156 315.578125 185.3125 C 314.523438 185.070312 313.820312 185.898438 313.757812 186.726562 C 313.492188 187.460938 313.722656 188.367188 314.695312 188.601562 C 317.429688 189.261719 320.089844 190.058594 322.898438 190.214844 C 323.441406 190.242188 323.980469 190.273438 324.519531 190.304688 C 324.914062 190.390625 325.308594 190.480469 325.703125 190.566406 C 328.984375 191.273438 332.199219 192.410156 335.441406 193.296875 C 338.636719 194.171875 341.875 194.824219 345.089844 195.613281 C 346.796875 196.03125 348.5 196.484375 350.21875 196.859375 C 350.976562 197.023438 351.75 197.167969 352.519531 197.316406 C 352.253906 197.414062 351.984375 197.507812 351.714844 197.605469 C 349.964844 198.246094 348.273438 199.074219 346.5625 199.816406 C 346.257812 199.949219 345.953125 200.082031 345.652344 200.214844 C 345.539062 200.230469 345.417969 200.292969 345.308594 200.328125 C 344.164062 200.675781 343.03125 201.078125 341.890625 201.449219 C 340.285156 201.976562 338.71875 202.550781 337.136719 203.160156 C 335.558594 203.765625 333.980469 204.371094 332.414062 205.015625 C 330.78125 205.6875 329.171875 206.496094 327.449219 206.890625 C 325.699219 207.292969 323.804688 207.535156 322.121094 208.152344 C 320.253906 208.835938 318.476562 209.761719 316.613281 210.445312 C 314.683594 211.148438 312.667969 211.597656 310.742188 212.300781 C 309.433594 212.78125 308.144531 213.332031 306.859375 213.882812 C 306.214844 214.089844 305.574219 214.292969 304.933594 214.476562 C 304.292969 214.664062 303.886719 215.238281 303.859375 215.894531 C 303.808594 217.082031 303.757812 218.269531 303.707031 219.457031 C 303.664062 220.488281 303.496094 221.59375 303.648438 222.621094 C 303.839844 223.921875 304.070312 225.21875 304.277344 226.515625 C 304.375 227.121094 304.472656 227.726562 304.574219 228.332031 C 304.597656 228.484375 304.613281 228.644531 304.648438 228.796875 C 304.625 228.695312 304.609375 228.621094 304.601562 228.570312 C 304.605469 228.613281 304.605469 228.664062 304.605469 228.734375 C 304.4375 233.199219 304.898438 237.65625 305.050781 242.113281 C 305.128906 244.425781 305.183594 246.734375 305.375 249.042969 C 305.570312 251.347656 305.753906 253.59375 305.746094 255.902344 C 305.730469 260.542969 306.03125 265.160156 306.222656 269.796875 C 306.246094 270.316406 306.285156 270.835938 306.316406 271.355469 C 304.023438 267.984375 301.640625 264.6875 299.21875 261.40625 C 296.546875 257.789062 294.167969 253.976562 291.667969 250.246094 C 290.472656 248.460938 288.980469 246.742188 288.039062 244.804688 C 286.980469 242.625 285.996094 240.441406 284.699219 238.394531 C 283.964844 237.230469 283.128906 236.089844 282.472656 234.878906 C 281.941406 233.902344 281.566406 232.808594 281.125 231.789062 C 280.136719 229.507812 279.089844 227.265625 278.027344 225.015625 C 277.96875 224.890625 277.910156 224.765625 277.851562 224.636719 C 277.734375 224.378906 277.613281 224.117188 277.5 223.859375 C 277.1875 223.136719 276.113281 222.960938 275.496094 223.332031 C 271.585938 225.675781 267.4375 227.828125 263.773438 230.546875 C 261.703125 232.085938 259.683594 233.632812 257.703125 235.289062 C 257.117188 235.777344 256.535156 236.265625 255.949219 236.753906 C 255.851562 236.835938 255.75 236.917969 255.648438 237.003906 C 255.632812 237.015625 255.621094 237.019531 255.597656 237.035156 C 254.332031 237.796875 253.121094 238.667969 251.890625 239.484375 C 249.859375 240.824219 248.050781 242.46875 246.199219 244.046875 C 246.175781 244.0625 246.132812 244.101562 246.082031 244.144531 C 246.007812 244.203125 245.875 244.3125 245.832031 244.34375 C 245.253906 244.773438 244.683594 245.207031 244.109375 245.636719 C 243.097656 246.398438 242.074219 247.144531 241.074219 247.925781 C 240.046875 248.726562 239.027344 249.539062 238.003906 250.347656 C 237.511719 250.734375 237.019531 251.117188 236.53125 251.511719 C 236.378906 251.621094 236.230469 251.738281 236.078125 251.851562 C 234.136719 253.324219 232.195312 254.796875 230.234375 256.246094 C 229.484375 256.796875 228.75 257.386719 227.992188 257.9375 C 228.027344 257.863281 228.058594 257.792969 228.09375 257.722656 C 229.054688 255.703125 230.152344 253.710938 230.898438 251.597656 C 231.398438 250.1875 231.898438 248.773438 232.394531 247.363281 C 232.464844 247.167969 232.726562 246.480469 232.625 246.703125 C 232.777344 246.34375 232.9375 245.984375 233.09375 245.625 C 234.894531 241.464844 236.671875 237.292969 238.234375 233.035156 C 238.789062 231.519531 239.335938 230.003906 239.886719 228.484375 C 240.953125 227.207031 242.109375 225.972656 242.871094 224.527344 C 243.992188 222.398438 245.03125 220.25 246.382812 218.261719 C 247.792969 216.191406 249.203125 214.121094 250.621094 212.058594 C 252.0625 209.960938 253.289062 207.820312 254.535156 205.59375 C 254.734375 205.238281 254.933594 204.878906 255.136719 204.523438 C 255.527344 203.820312 255.292969 202.933594 254.609375 202.515625 C 251.847656 200.816406 249.140625 199.128906 246.496094 197.25 C 244.097656 195.542969 241.652344 193.914062 239.195312 192.296875 C 236.300781 190.386719 233.410156 188.480469 230.542969 186.523438 C 229.414062 185.753906 228.332031 184.949219 227.238281 184.121094 C 226.640625 183.667969 226.039062 183.214844 225.441406 182.757812 C 227.269531 182.972656 229.152344 182.921875 230.980469 183.066406 C 232.9375 183.21875 234.890625 183.507812 236.839844 183.734375 C 240.746094 184.191406 244.652344 184.640625 248.566406 185.039062 C 252.46875 185.4375 256.386719 185.675781 260.292969 186.085938 C 262.390625 186.304688 264.550781 186.125 266.660156 186.152344 C 268.710938 186.179688 270.757812 186.285156 272.804688 186.351562 C 273.328125 186.371094 273.804688 186.058594 274.070312 185.625 C 275.226562 183.75 276.515625 181.90625 277.53125 179.949219 C 278.652344 177.78125 279.742188 175.589844 280.863281 173.421875 C 282.054688 171.117188 283.242188 168.859375 284.582031 166.640625 C 285.214844 165.585938 285.980469 164.539062 286.460938 163.402344 C 287.011719 162.105469 287.550781 160.796875 288.097656 159.496094 C 288.316406 158.96875 288.539062 158.445312 288.757812 157.917969 C 288.765625 157.910156 288.765625 157.910156 288.773438 157.898438 C 288.898438 157.71875 288.984375 157.484375 289.082031 157.292969 C 289.820312 155.84375 290.558594 154.394531 291.300781 152.945312 C 292.332031 150.917969 293.507812 148.957031 294.480469 146.898438 C 295.023438 145.75 295.460938 144.535156 295.945312 143.359375 C 296.242188 142.632812 296.542969 141.90625 296.839844 141.183594 C 296.863281 141.132812 296.886719 141.078125 296.90625 141.027344 C 296.929688 140.992188 296.980469 140.914062 297.054688 140.796875 C 298.117188 139.152344 299.117188 137.457031 300.070312 135.742188 C 300.34375 138.734375 300.726562 141.695312 301.222656 144.6875 C 301.226562 144.707031 301.226562 144.710938 301.230469 144.726562 C 301.230469 144.75 301.226562 144.765625 301.226562 144.808594 C 301.222656 145.394531 301.277344 145.988281 301.304688 146.574219 C 301.363281 147.871094 301.414062 149.171875 301.476562 150.472656 C 301.574219 152.496094 301.742188 154.515625 301.878906 156.539062 C 302.148438 160.570312 302.503906 164.589844 302.890625 168.609375 C 303.097656 170.804688 303.128906 173.019531 303.28125 175.21875 C 303.429688 177.339844 303.753906 179.457031 303.992188 181.566406 C 304.082031 182.363281 304.601562 183.027344 305.460938 183.035156 C 306.183594 183.042969 307.015625 182.355469 306.925781 181.566406 C 306.691406 179.527344 306.402344 177.484375 306.226562 175.4375 C 306.050781 173.386719 306.039062 171.324219 305.882812 169.273438 C 305.574219 165.183594 305.132812 161.109375 304.84375 157.015625 C 304.554688 152.949219 304.429688 148.875 304.160156 144.808594 C 304.019531 142.699219 303.535156 140.566406 303.195312 138.484375 C 303.1875 138.441406 303.179688 138.394531 303.175781 138.351562 C 303.175781 138.347656 303.175781 138.34375 303.175781 138.339844 C 303.183594 137.796875 303.09375 137.230469 303.054688 136.691406 C 302.960938 135.363281 302.863281 134.039062 302.769531 132.710938 C 302.722656 132.097656 302.6875 131.480469 302.652344 130.863281 C 303.214844 129.71875 303.753906 128.5625 304.253906 127.367188 C 304.578125 126.589844 304.90625 125.816406 305.230469 125.039062 C 305.320312 124.824219 305.410156 124.609375 305.5 124.394531 C 305.5 124.394531 305.5 124.398438 305.503906 124.394531 C 305.617188 124.226562 305.714844 124.035156 305.816406 123.855469 C 305.835938 124.207031 305.859375 124.558594 305.867188 124.910156 C 305.882812 126.503906 305.902344 128.09375 305.921875 129.683594 C 305.933594 130.640625 306.15625 131.574219 306.328125 132.515625 C 306.558594 133.796875 306.660156 135.210938 307.03125 136.46875 C 307.03125 136.769531 307.0625 137.070312 307.074219 137.367188 C 307.113281 138.183594 307.152344 139 307.195312 139.820312 C 307.316406 142.328125 307.53125 144.824219 307.75 147.328125 C 307.957031 149.652344 307.691406 152.003906 307.628906 154.335938 C 307.574219 156.449219 307.589844 158.597656 307.664062 160.710938 C 307.835938 165.4375 308.574219 170.121094 308.695312 174.839844 C 308.761719 177.402344 308.734375 179.824219 308.539062 182.378906 C 308.347656 184.875 308.351562 187.324219 308.367188 189.832031 C 308.371094 190.261719 308.371094 190.6875 308.375 191.117188 C 308.386719 193.003906 311.316406 193.007812 311.304688 191.117188 C 311.292969 188.957031 311.136719 186.753906 311.300781 184.597656 C 311.480469 182.183594 311.757812 179.78125 311.691406 177.363281 C 311.628906 174.839844 311.53125 172.382812 311.277344 169.878906 C 311.019531 167.347656 310.84375 164.832031 310.691406 162.292969 C 310.546875 159.890625 310.570312 157.488281 310.554688 155.085938 C 310.539062 152.871094 310.839844 150.652344 310.78125 148.445312 C 310.722656 146.289062 310.339844 144.140625 310.230469 141.988281 C 310.101562 139.515625 310.113281 137.03125 309.671875 134.59375 C 309.402344 133.113281 309.160156 131.625 308.867188 130.148438 C 308.863281 130.164062 308.863281 130.179688 308.859375 130.191406 C 308.863281 130.175781 308.859375 130.148438 308.863281 130.128906 C 308.859375 130.113281 308.859375 130.101562 308.855469 130.085938 C 308.792969 129.773438 308.851562 129.882812 308.867188 130.03125 C 308.867188 129.910156 308.855469 129.78125 308.855469 129.683594 C 308.84375 128.910156 308.835938 128.140625 308.828125 127.371094 C 308.796875 124.8125 308.609375 122.359375 308.347656 119.8125 C 308.300781 119.367188 308.253906 118.917969 308.207031 118.472656 C 308.074219 117.175781 306.175781 116.285156 305.476562 117.730469 C 304.472656 119.804688 303.410156 121.859375 302.519531 123.984375 C 302.449219 124.148438 302.378906 124.316406 302.308594 124.480469 C 302.234375 122.863281 302.15625 121.246094 302.066406 119.632812 C 301.992188 118.316406 299.976562 117.460938 299.332031 118.890625 C 297.605469 122.734375 295.765625 126.507812 293.976562 130.320312 C 293.035156 132.320312 292.144531 134.34375 291.152344 136.316406 C 290.117188 138.375 289.039062 140.386719 288.21875 142.535156 C 287.714844 143.855469 287.1875 145.164062 286.707031 146.492188 C 286.722656 146.460938 286.734375 146.4375 286.753906 146.398438 C 286.722656 146.460938 286.691406 146.53125 286.664062 146.597656 C 286.675781 146.574219 286.683594 146.550781 286.691406 146.53125 C 286.695312 146.515625 286.703125 146.503906 286.707031 146.492188 C 286.507812 146.871094 286.59375 146.753906 286.660156 146.605469 C 286.636719 146.664062 286.609375 146.71875 286.582031 146.777344 C 286.292969 147.394531 286.015625 148.015625 285.730469 148.636719 C 284.75 150.773438 283.734375 152.859375 282.65625 154.945312 C 280.59375 158.929688 278.730469 163.007812 276.863281 167.085938 C 276.46875 167.949219 276.058594 168.804688 275.652344 169.660156 C 275.277344 170.453125 274.898438 171.246094 274.523438 172.035156 C 274.355469 172.390625 274.042969 172.84375 273.925781 173.25 C 274.007812 173.066406 274.136719 173.058594 273.898438 173.355469 C 273.894531 173.359375 273.894531 173.363281 273.890625 173.363281 C 273.890625 173.367188 273.886719 173.371094 273.886719 173.375 C 273.886719 173.371094 273.890625 173.371094 273.890625 173.367188 C 273.707031 173.59375 273.523438 173.824219 273.339844 174.054688 C 272.824219 174.703125 272.308594 175.347656 271.789062 175.992188 C 271.117188 176.832031 270.449219 177.671875 269.777344 178.511719 C 267.96875 178.632812 266.164062 178.753906 264.359375 178.863281 C 262.574219 178.96875 260.742188 178.753906 258.957031 178.679688 C 257.230469 178.609375 255.535156 178.332031 253.820312 178.109375 C 253.292969 178.039062 252.765625 177.96875 252.238281 177.898438 C 252.15625 177.886719 252.070312 177.875 251.988281 177.867188 C 251.984375 177.863281 251.984375 177.863281 251.976562 177.859375 C 251.082031 177.515625 249.960938 177.453125 249.019531 177.265625 C 245.578125 176.574219 242.050781 175.90625 238.542969 175.738281 C 236.722656 175.648438 234.886719 175.628906 233.074219 175.460938 C 231.949219 175.351562 230.828125 175.210938 229.707031 175.089844 C 229.132812 175.027344 228.5625 174.964844 227.992188 174.902344 C 227.832031 174.882812 227.667969 174.863281 227.503906 174.847656 C 227.511719 174.851562 227.519531 174.855469 227.523438 174.859375 C 227.519531 174.851562 227.503906 174.851562 227.496094 174.847656 C 227.480469 174.84375 227.460938 174.84375 227.441406 174.839844 C 227.09375 174.804688 227.203125 174.753906 227.363281 174.789062 C 227.09375 174.699219 226.679688 174.679688 226.46875 174.636719 C 225.777344 174.488281 225.089844 174.34375 224.398438 174.199219 C 223.421875 173.992188 222.445312 173.742188 221.464844 173.578125 C 219.351562 173.226562 217.117188 173.277344 214.980469 173.140625 C 213.710938 173.0625 213.054688 174.800781 213.945312 175.648438 C 214.925781 176.578125 215.894531 177.511719 216.855469 178.445312 C 215.597656 178.355469 214.335938 178.296875 213.089844 178.199219 C 211.484375 178.070312 211.316406 180.164062 212.351562 180.933594 C 213.601562 181.867188 214.847656 182.796875 216.097656 183.730469 C 216.410156 183.960938 216.722656 184.195312 217.035156 184.429688 C 217.101562 184.476562 217.160156 184.535156 217.210938 184.585938 C 217.191406 184.5625 217.175781 184.542969 217.152344 184.507812 C 217.480469 184.957031 218.050781 185.335938 218.453125 185.707031 C 219.609375 186.773438 220.726562 187.933594 221.964844 188.902344 C 223.207031 189.871094 224.464844 190.824219 225.714844 191.785156 C 226.570312 192.445312 227.425781 193.019531 228.339844 193.597656 C 229.199219 194.140625 230.058594 194.679688 230.917969 195.222656 C 231.195312 195.398438 231.46875 195.578125 231.746094 195.746094 C 231.882812 195.828125 231.941406 195.863281 231.964844 195.878906 C 234.152344 197.640625 236.375 199.335938 238.496094 201.183594 C 240.730469 203.132812 242.894531 205.140625 245.058594 207.164062 C 244.675781 208.859375 244.34375 210.601562 243.785156 212.226562 C 243.355469 213.476562 242.765625 214.691406 242.261719 215.910156 C 242.050781 216.421875 241.839844 216.933594 241.628906 217.445312 C 241.628906 217.441406 241.628906 217.441406 241.632812 217.4375 C 241.628906 217.441406 241.628906 217.449219 241.625 217.449219 C 241.621094 217.464844 241.613281 217.480469 241.605469 217.496094 C 241.566406 217.59375 241.53125 217.648438 241.5 217.679688 C 241.484375 217.722656 241.464844 217.761719 241.445312 217.796875 C 240.390625 219.742188 239.210938 221.730469 238.460938 223.816406 C 238.066406 224.921875 237.664062 226.023438 237.269531 227.125 C 235.832031 229.011719 234.941406 231.195312 233.824219 233.289062 C 232.835938 235.148438 231.339844 236.734375 230.222656 238.519531 C 227.746094 242.472656 225.707031 246.703125 223.296875 250.699219 C 222.625 251.808594 221.859375 252.902344 221.269531 254.058594 C 220.699219 255.175781 220.285156 256.40625 219.800781 257.566406 C 219.515625 258.246094 219.230469 258.925781 218.945312 259.605469 C 218.910156 259.6875 218.824219 259.828125 218.796875 259.878906 C 218.777344 259.90625 218.757812 259.933594 218.75 259.949219 C 217.953125 261.273438 217.210938 262.628906 216.445312 263.96875 C 216.25 264.308594 216.054688 264.648438 215.863281 264.984375 C 215.113281 266.289062 216.589844 267.675781 217.867188 266.992188 C 219.074219 266.351562 220.308594 265.722656 221.542969 265.082031 C 221.144531 265.957031 220.746094 266.828125 220.335938 267.695312 C 219.691406 269.078125 220.984375 270.304688 222.34375 269.703125 C 226.429688 267.894531 230.5625 266.128906 234.121094 263.382812 C 238.007812 260.382812 242.085938 257.691406 245.96875 254.691406 C 247.839844 253.246094 249.644531 251.714844 251.441406 250.175781 C 251.476562 250.148438 251.519531 250.113281 251.566406 250.082031 C 251.527344 250.109375 251.488281 250.132812 251.429688 250.167969 C 251.5625 250.085938 251.6875 249.984375 251.8125 249.894531 C 252.402344 249.476562 252.988281 249.058594 253.578125 248.640625 C 254.554688 247.949219 255.636719 247.308594 256.539062 246.515625 C 258.160156 245.089844 259.523438 243.367188 261.136719 241.921875 C 262.878906 240.359375 264.628906 238.804688 266.339844 237.203125 C 268.136719 235.511719 269.90625 233.8125 271.648438 232.066406 C 273.144531 230.5625 274.503906 228.996094 275.859375 227.378906 C 276.050781 227.820312 276.242188 228.257812 276.433594 228.699219 C 276.695312 229.296875 276.957031 229.898438 277.21875 230.5 C 277.273438 230.621094 277.324219 230.742188 277.378906 230.867188 C 277.386719 230.890625 277.390625 230.910156 277.402344 230.949219 C 278.070312 233.089844 278.769531 235.332031 279.722656 237.359375 C 281.613281 241.375 283.785156 245.28125 285.546875 249.351562 C 287.382812 253.597656 289.296875 257.753906 291.75 261.683594 C 292.386719 262.699219 293.117188 263.703125 293.671875 264.765625 C 294.171875 265.714844 294.535156 266.769531 294.957031 267.753906 C 295.351562 268.679688 295.6875 269.6875 296.171875 270.570312 C 296.773438 271.671875 297.589844 272.695312 298.289062 273.738281 C 299.746094 275.917969 301.171875 278.113281 302.605469 280.3125 C 303.921875 282.335938 305.714844 284.078125 307.300781 285.894531 C 308.152344 286.871094 309.804688 286.070312 309.800781 284.855469 C 309.796875 283.503906 309.828125 282.140625 309.824219 280.78125 C 309.851562 280.816406 309.882812 280.851562 309.910156 280.886719 C 309.949219 280.933594 309.988281 280.984375 310.027344 281.03125 C 310.03125 281.027344 310.078125 281.070312 310.179688 281.207031 C 310.183594 281.214844 310.191406 281.21875 310.195312 281.226562 C 310.199219 281.230469 310.203125 281.238281 310.207031 281.242188 C 310.203125 281.238281 310.203125 281.234375 310.199219 281.234375 C 311.113281 282.433594 312.027344 283.636719 312.945312 284.835938 C 313.183594 285.152344 313.425781 285.46875 313.664062 285.785156 C 314.472656 286.839844 316.445312 286.648438 316.394531 285.042969 C 316.328125 282.851562 316.410156 280.605469 316.117188 278.4375 C 315.925781 277 315.730469 275.566406 315.535156 274.132812 C 315.5 273.859375 315.460938 273.585938 315.425781 273.3125 C 315.402344 273.144531 315.425781 272.988281 315.441406 273.015625 C 315.429688 272.636719 315.367188 272.242188 315.347656 271.875 C 315.203125 269.363281 315.011719 266.988281 314.570312 264.519531 C 314.144531 262.140625 313.761719 259.769531 313.398438 257.382812 C 313.046875 255.085938 312.597656 252.8125 312.167969 250.53125 C 312.144531 250.421875 312.132812 250.28125 312.105469 250.152344 C 312.125 250.300781 312.121094 250.460938 312.09375 250.152344 C 312.089844 250.128906 312.089844 250.109375 312.085938 250.085938 C 312.082031 250.066406 312.078125 250.042969 312.070312 250.027344 C 312.078125 250.035156 312.082031 250.050781 312.085938 250.066406 C 312.027344 249.410156 311.949219 248.753906 311.882812 248.097656 C 311.761719 246.929688 311.648438 245.757812 311.519531 244.585938 C 311.28125 242.441406 311.160156 240.214844 310.71875 238.101562 C 310.253906 235.871094 309.699219 233.660156 309.210938 231.433594 C 308.609375 228.683594 308.054688 225.949219 307.5625 223.175781 C 307.472656 222.675781 307.441406 222.085938 307.300781 221.578125 C 307.316406 221.675781 307.292969 221.648438 307.277344 221.484375 C 307.261719 221.441406 307.253906 221.394531 307.238281 221.351562 C 307.257812 221.402344 307.265625 221.433594 307.273438 221.472656 C 307.273438 221.441406 307.265625 221.421875 307.265625 221.375 C 307.257812 221.035156 307.226562 220.695312 307.207031 220.355469 C 307.144531 219.230469 307.082031 218.101562 307.019531 216.976562 C 307.214844 216.890625 307.410156 216.8125 307.605469 216.726562 C 308.886719 216.324219 310.171875 215.917969 311.472656 215.660156 C 313.457031 215.273438 315.503906 215.125 317.507812 214.824219 C 321.699219 214.203125 325.863281 213.535156 329.933594 212.316406 C 332.007812 211.695312 334.066406 211.0625 336.167969 210.550781 C 336.894531 210.371094 337.621094 210.195312 338.347656 210.015625 C 338.792969 209.90625 339.523438 209.863281 339.925781 209.628906 C 339.925781 209.628906 339.925781 209.628906 339.929688 209.628906 C 340.046875 209.613281 340.164062 209.601562 340.28125 209.589844 C 341.003906 209.507812 341.722656 209.425781 342.445312 209.34375 C 343.566406 209.21875 344.765625 209.203125 345.867188 208.953125 C 346.902344 208.71875 347.9375 208.25 348.941406 207.910156 C 351.015625 207.210938 353.046875 206.683594 355.179688 206.179688 C 356.109375 205.957031 357.007812 205.78125 357.882812 205.394531 C 359.300781 204.765625 360.71875 204.125 362.136719 203.492188 C 362.300781 203.417969 362.464844 203.347656 362.628906 203.273438 C 362.640625 203.269531 362.644531 203.269531 362.660156 203.265625 C 363.269531 203.136719 363.878906 202.871094 364.472656 202.679688 C 365.707031 202.28125 366.941406 201.882812 368.175781 201.484375 C 369.472656 201.066406 369.664062 198.980469 368.175781 198.65625 Z M 220.121094 176.402344 C 220.332031 176.414062 220.542969 176.433594 220.753906 176.441406 C 220.734375 176.433594 220.714844 176.425781 220.695312 176.414062 C 220.714844 176.425781 220.75 176.433594 220.773438 176.445312 C 221.085938 176.460938 221.039062 176.519531 220.890625 176.488281 C 221.160156 176.570312 221.523438 176.585938 221.75 176.636719 C 222.441406 176.78125 223.128906 176.925781 223.820312 177.070312 C 224.796875 177.277344 225.773438 177.523438 226.753906 177.691406 C 230.925781 178.394531 235.132812 178.375 239.332031 178.710938 C 241.355469 178.875 243.375 179.242188 245.386719 179.511719 C 245.671875 179.550781 245.527344 179.550781 245.367188 179.523438 C 245.445312 179.539062 245.527344 179.550781 245.601562 179.566406 C 246.179688 179.691406 246.761719 179.800781 247.34375 179.914062 C 248.585938 180.164062 249.824219 180.433594 251.066406 180.664062 C 255.132812 181.414062 259.207031 181.625 263.324219 181.796875 C 265.355469 181.878906 267.417969 181.601562 269.445312 181.46875 C 270.335938 181.414062 271.128906 181.433594 271.757812 180.703125 C 272.578125 179.75 273.335938 178.730469 274.121094 177.746094 C 274.796875 176.902344 275.476562 176.0625 276.144531 175.214844 C 276.695312 174.511719 277.007812 173.617188 277.390625 172.8125 C 278.261719 170.980469 279.128906 169.144531 279.972656 167.300781 C 281.679688 163.582031 283.402344 159.878906 285.28125 156.246094 C 287.191406 152.550781 288.949219 148.800781 290.433594 144.917969 C 290.8125 143.925781 291.242188 142.9375 291.574219 141.929688 C 291.308594 142.734375 291.769531 141.601562 291.867188 141.402344 C 292.1875 140.769531 292.503906 140.140625 292.820312 139.507812 C 293.75 137.664062 294.640625 135.8125 295.511719 133.9375 C 296.800781 131.171875 298.152344 128.4375 299.449219 125.675781 C 299.527344 127.210938 299.613281 128.742188 299.699219 130.277344 C 299.628906 130.410156 299.558594 130.546875 299.488281 130.679688 C 298.257812 132.988281 296.992188 135.230469 295.640625 137.472656 C 295.097656 138.371094 294.496094 139.242188 294.09375 140.210938 C 293.488281 141.671875 292.890625 143.132812 292.289062 144.589844 C 292.171875 144.871094 292.058594 145.148438 291.945312 145.425781 C 291.945312 145.421875 291.945312 145.421875 291.949219 145.417969 C 291.945312 145.421875 291.945312 145.425781 291.941406 145.425781 C 291.941406 145.429688 291.941406 145.429688 291.941406 145.433594 C 291.835938 145.6875 291.765625 145.71875 291.816406 145.613281 C 291.609375 145.945312 291.453125 146.355469 291.28125 146.683594 C 290.558594 148.050781 289.832031 149.414062 289.117188 150.785156 C 288.066406 152.792969 286.910156 154.804688 286.03125 156.898438 C 285.484375 158.195312 284.945312 159.492188 284.402344 160.792969 C 284.179688 161.320312 283.960938 161.84375 283.742188 162.371094 C 283.730469 162.375 283.726562 162.375 283.71875 162.386719 C 283.554688 162.542969 283.441406 162.84375 283.328125 163.035156 C 282.015625 165.210938 280.695312 167.359375 279.53125 169.617188 C 278.335938 171.925781 277.152344 174.238281 275.972656 176.554688 C 274.820312 178.816406 273.511719 180.9375 272.183594 183.101562 C 272.125 183.199219 272.066406 183.292969 272.007812 183.386719 C 270.28125 183.324219 268.554688 183.25 266.828125 183.21875 C 264.847656 183.183594 262.847656 183.304688 260.871094 183.207031 C 258.898438 183.105469 256.933594 182.773438 254.96875 182.589844 C 253.007812 182.410156 251.039062 182.320312 249.078125 182.152344 C 241.234375 181.484375 233.457031 180.117188 225.578125 179.824219 C 225.546875 179.824219 225.507812 179.820312 225.472656 179.816406 C 225.554688 179.804688 225.496094 179.769531 225.234375 179.792969 C 225.257812 179.800781 225.273438 179.800781 225.292969 179.804688 C 225.25 179.800781 225.207031 179.796875 225.167969 179.800781 C 225.191406 179.796875 225.210938 179.796875 225.234375 179.792969 C 224.597656 179.664062 223.957031 179.554688 223.316406 179.433594 C 222.761719 179.328125 222.210938 179.21875 221.65625 179.109375 C 220.730469 178.175781 219.796875 177.242188 218.855469 176.324219 C 219.277344 176.347656 219.699219 176.375 220.121094 176.402344 Z M 234.398438 194.085938 C 232.414062 192.519531 230.101562 191.4375 228.078125 189.929688 C 226.667969 188.882812 225.292969 187.789062 223.898438 186.714844 C 223.839844 186.667969 223.777344 186.621094 223.71875 186.574219 C 223.664062 186.523438 223.484375 186.359375 223.402344 186.285156 C 222.738281 185.671875 222.070312 185.054688 221.402344 184.441406 C 220.285156 183.410156 219.128906 182.453125 217.949219 181.523438 C 218.292969 181.554688 218.800781 181.683594 219.160156 181.628906 C 219.289062 181.65625 219.421875 181.679688 219.550781 181.703125 C 219.78125 181.746094 220.007812 181.789062 220.238281 181.832031 C 220.484375 182.085938 220.738281 182.328125 220.984375 182.585938 C 223.058594 184.753906 225.460938 186.5625 227.921875 188.28125 C 233.101562 191.894531 238.523438 195.164062 243.667969 198.824219 C 246.378906 200.753906 249.109375 202.542969 251.921875 204.296875 C 251.125 205.785156 250.339844 207.300781 249.394531 208.679688 C 248.515625 209.960938 247.640625 211.238281 246.761719 212.519531 C 247.34375 210.75 247.648438 208.847656 248.089844 207.058594 C 248.210938 206.558594 248.097656 205.992188 247.710938 205.628906 C 243.40625 201.589844 239.035156 197.738281 234.398438 194.085938 Z M 221.027344 261.96875 C 221.269531 261.503906 221.5 261.035156 221.699219 260.558594 C 222.28125 259.175781 222.859375 257.789062 223.4375 256.40625 C 223.554688 256.132812 223.667969 255.859375 223.78125 255.585938 C 223.816406 255.503906 223.902344 255.363281 223.941406 255.292969 C 223.960938 255.265625 223.980469 255.242188 223.992188 255.226562 C 224.175781 254.9375 224.347656 254.636719 224.523438 254.34375 C 226.796875 250.574219 228.941406 246.734375 231.109375 242.90625 C 230.316406 244.757812 229.5625 246.597656 228.890625 248.503906 C 228.632812 249.226562 228.378906 249.953125 228.125 250.675781 C 228.050781 250.878906 227.976562 251.078125 227.910156 251.28125 C 227.890625 251.332031 227.878906 251.363281 227.863281 251.402344 C 227.882812 251.359375 227.902344 251.320312 227.9375 251.253906 C 227.910156 251.308594 227.886719 251.363281 227.859375 251.417969 C 227.820312 251.515625 227.800781 251.542969 227.820312 251.492188 C 227.304688 252.484375 226.859375 253.523438 226.378906 254.53125 C 225.429688 256.523438 224.511719 258.53125 223.605469 260.542969 C 222.75 261.027344 221.890625 261.5 221.027344 261.96875 Z M 254.574219 244.347656 C 254.554688 244.359375 254.535156 244.378906 254.511719 244.390625 C 254.605469 244.304688 254.871094 244.144531 254.574219 244.347656 Z M 266.148438 233.359375 C 262.609375 236.683594 258.976562 239.882812 255.558594 243.335938 C 255.242188 243.65625 254.742188 244.011719 254.503906 244.398438 C 254.300781 244.539062 254.105469 244.679688 253.90625 244.824219 C 252.683594 245.691406 251.457031 246.550781 250.242188 247.425781 C 249.4375 248.003906 248.699219 248.664062 247.941406 249.300781 C 247.316406 249.828125 246.691406 250.351562 246.066406 250.878906 C 245.851562 251.058594 245.636719 251.238281 245.425781 251.417969 C 245.222656 251.589844 245.082031 251.710938 245.300781 251.535156 C 243.695312 252.839844 242.054688 254.160156 240.34375 255.320312 C 238.414062 256.628906 236.460938 257.898438 234.617188 259.324219 C 233.527344 260.164062 232.464844 261.085938 231.328125 261.863281 C 230.453125 262.464844 229.460938 262.941406 228.539062 263.46875 C 227.222656 264.21875 225.894531 264.878906 224.546875 265.511719 C 224.949219 264.609375 225.355469 263.707031 225.761719 262.804688 C 227.117188 262.019531 228.441406 261.191406 229.6875 260.273438 C 233.757812 257.273438 237.789062 254.226562 241.761719 251.09375 C 242.171875 250.769531 242.589844 250.453125 242.992188 250.121094 C 243 250.117188 243 250.117188 243.007812 250.113281 C 243.21875 249.957031 243.429688 249.796875 243.640625 249.636719 C 244.863281 248.71875 246.085938 247.796875 247.308594 246.878906 C 248.101562 246.28125 248.851562 245.632812 249.609375 244.996094 C 250.25 244.457031 250.890625 243.917969 251.53125 243.378906 C 251.761719 243.1875 251.988281 242.996094 252.214844 242.804688 C 252.25 242.773438 252.289062 242.746094 252.320312 242.71875 C 252.296875 242.730469 252.277344 242.742188 252.25 242.757812 C 252.285156 242.738281 252.316406 242.714844 252.351562 242.699219 C 252.449219 242.632812 252.511719 242.601562 252.503906 242.613281 C 253.519531 242.074219 254.476562 241.285156 255.425781 240.660156 C 256.242188 240.117188 257.082031 239.609375 257.835938 238.984375 C 259.035156 237.992188 260.21875 236.992188 261.410156 235.996094 C 261.605469 235.835938 261.800781 235.679688 261.988281 235.515625 C 262.003906 235.5 262.011719 235.496094 262.023438 235.484375 C 262.429688 235.203125 262.820312 234.890625 263.214844 234.597656 C 265.0625 233.226562 266.863281 231.964844 268.800781 230.773438 C 267.929688 231.648438 267.046875 232.511719 266.148438 233.359375 Z M 307.9375 239.03125 C 307.941406 239.070312 307.945312 239.105469 307.949219 239.144531 C 307.925781 239.066406 307.890625 238.605469 307.9375 239.03125 Z M 307.839844 238.65625 C 307.867188 238.773438 307.875 239.046875 307.949219 239.152344 C 308.109375 240.582031 308.285156 242.011719 308.453125 243.441406 C 308.714844 245.675781 308.914062 247.917969 309.164062 250.152344 C 309.398438 252.285156 309.957031 254.382812 310.316406 256.496094 C 310.671875 258.585938 310.917969 260.691406 311.289062 262.773438 C 311.558594 264.277344 311.828125 265.78125 312.097656 267.28125 C 312.125 267.429688 312.144531 267.585938 312.175781 267.738281 C 312.148438 268.300781 312.246094 268.894531 312.277344 269.457031 C 312.445312 272.355469 312.742188 275.164062 313.132812 278.042969 C 313.179688 278.398438 313.230469 278.753906 313.277344 279.109375 C 313.28125 279.128906 313.28125 279.144531 313.28125 279.160156 C 313.28125 279.160156 313.28125 279.15625 313.285156 279.15625 C 313.28125 279.15625 313.285156 279.160156 313.28125 279.164062 C 313.304688 279.378906 313.265625 279.488281 313.25 279.453125 C 313.234375 279.785156 313.277344 280.164062 313.3125 280.5 C 312.917969 279.988281 312.53125 279.472656 312.121094 278.976562 C 311.277344 277.953125 310.417969 276.941406 309.5625 275.925781 C 309.433594 274.582031 309.296875 273.238281 309.242188 271.890625 C 309.054688 267.367188 308.652344 262.816406 308.667969 258.289062 C 308.679688 255.984375 308.699219 253.730469 308.507812 251.4375 C 308.3125 249.105469 308.144531 246.800781 308.0625 244.464844 C 307.996094 242.484375 307.902344 240.503906 307.808594 238.527344 C 307.820312 238.570312 307.828125 238.613281 307.839844 238.65625 Z M 305.6875 279.597656 C 305.625 279.523438 305.5625 279.453125 305.5 279.378906 C 305.558594 279.460938 305.546875 279.46875 305.472656 279.351562 C 305.433594 279.308594 305.402344 279.261719 305.359375 279.222656 C 305.40625 279.265625 305.4375 279.304688 305.46875 279.339844 C 305.453125 279.316406 305.445312 279.308594 305.425781 279.273438 C 304.308594 277.371094 303.019531 275.546875 301.792969 273.714844 C 300.5625 271.871094 299.125 270.089844 298.25 268.046875 C 297.347656 265.953125 296.558594 263.851562 295.351562 261.917969 C 294.078125 259.875 292.882812 257.8125 291.761719 255.707031 C 293.085938 257.726562 294.414062 259.738281 295.8125 261.707031 C 298.503906 265.488281 301.382812 269.132812 303.933594 273.015625 C 304.664062 274.125 305.359375 275.273438 306.132812 276.355469 C 306.320312 276.617188 306.519531 276.875 306.722656 277.128906 C 306.746094 277.382812 306.765625 277.636719 306.785156 277.890625 C 306.871094 278.914062 306.890625 279.945312 306.894531 280.976562 C 306.492188 280.515625 306.089844 280.054688 305.6875 279.597656 Z M 324.21875 210.664062 C 324.96875 210.46875 325.730469 210.296875 326.515625 210.117188 C 326.679688 210.078125 326.847656 210.042969 327.015625 210.007812 C 326.085938 210.242188 325.152344 210.460938 324.21875 210.664062 Z M 361.359375 200.644531 C 360.253906 201.125 359.15625 201.628906 358.058594 202.121094 C 357.507812 202.367188 356.953125 202.609375 356.402344 202.859375 C 356.375 202.871094 356.347656 202.882812 356.320312 202.894531 C 356.246094 202.914062 356.128906 202.941406 356.070312 202.953125 C 354.066406 203.300781 351.957031 203.796875 350.027344 204.449219 C 348.683594 204.90625 347.339844 205.359375 345.996094 205.816406 C 345.835938 205.871094 345.070312 206.09375 345.167969 206.109375 C 344.84375 206.152344 344.515625 206.179688 344.195312 206.214844 C 341.957031 206.464844 339.757812 206.652344 337.570312 207.1875 C 335.433594 207.707031 333.324219 208.238281 331.21875 208.867188 C 330.753906 209.007812 330.289062 209.128906 329.824219 209.257812 C 330.332031 209.054688 330.832031 208.816406 331.328125 208.613281 C 332.941406 207.949219 334.546875 207.28125 336.171875 206.660156 C 337.808594 206.03125 339.429688 205.34375 341.09375 204.796875 C 343.003906 204.171875 345.007812 203.664062 346.855469 202.871094 C 347.882812 202.429688 348.90625 201.976562 349.929688 201.527344 C 350.542969 201.261719 351.152344 200.996094 351.761719 200.730469 C 351.898438 200.667969 352.039062 200.609375 352.175781 200.550781 C 353.972656 200.085938 355.742188 199.332031 357.496094 198.671875 C 358.800781 199.191406 360.078125 199.789062 361.417969 200.1875 C 361.636719 200.253906 361.863281 200.304688 362.082031 200.363281 C 361.84375 200.457031 361.59375 200.542969 361.359375 200.644531 Z M 361.359375 200.644531 " fill-opacity="1" fill-rule="nonzero"/></g><g clip-path="url(#fdc0c78782)"><path fill="#090000" d="M 190.074219 203.585938 C 186 203.339844 181.964844 202.996094 177.902344 202.597656 C 173.917969 202.203125 169.894531 201.78125 165.890625 201.640625 C 163.910156 201.570312 161.878906 201.855469 159.894531 201.953125 C 157.90625 202.054688 155.90625 202.027344 153.917969 202.058594 C 149.941406 202.117188 145.984375 202.101562 142.007812 202.242188 C 137.996094 202.382812 133.988281 202.550781 129.980469 202.726562 C 129.023438 201.039062 128.070312 199.351562 127.09375 197.675781 C 125.808594 195.476562 124.671875 193.230469 122.984375 191.316406 C 122.003906 190.203125 121.078125 188.941406 119.996094 187.925781 C 119.898438 187.757812 119.773438 187.597656 119.664062 187.441406 C 119.191406 186.746094 118.71875 186.050781 118.242188 185.351562 C 116.746094 183.15625 115.128906 181.199219 113.398438 179.175781 C 110.367188 175.632812 107.488281 171.945312 104.394531 168.453125 C 102.898438 166.765625 101.28125 165.183594 99.785156 163.492188 C 98.125 161.617188 96.496094 159.722656 94.734375 157.945312 C 93.273438 156.46875 91.84375 154.980469 90.429688 153.464844 C 88.535156 151.238281 86.644531 149.015625 84.828125 146.71875 C 84.773438 146.648438 84.71875 146.578125 84.667969 146.503906 C 84.421875 146.175781 84.171875 145.847656 83.925781 145.515625 C 83.824219 145.382812 83.707031 145.269531 83.570312 145.175781 C 83.257812 144.867188 82.859375 144.78125 82.46875 144.863281 C 81.769531 144.898438 81.136719 145.347656 81.195312 146.257812 C 81.195312 146.261719 81.195312 146.265625 81.195312 146.265625 C 81.195312 146.285156 81.1875 146.300781 81.1875 146.320312 C 81.183594 148.667969 81.058594 151.042969 81.257812 153.386719 C 81.347656 154.445312 81.464844 155.507812 81.554688 156.570312 C 81.570312 158.734375 81.554688 160.902344 81.484375 163.085938 C 81.476562 163.4375 81.464844 163.792969 81.460938 164.144531 C 81.386719 166.925781 81.378906 169.707031 81.359375 172.488281 C 81.195312 173.828125 80.96875 175.167969 80.921875 176.507812 C 80.84375 178.828125 80.921875 181.160156 80.921875 183.480469 C 80.804688 185.023438 80.671875 186.566406 80.53125 188.109375 C 80.320312 190.4375 79.703125 192.824219 79.8125 195.164062 C 79.894531 196.894531 80.066406 198.648438 80.054688 200.378906 C 80.050781 200.886719 80 201.398438 79.9375 201.914062 C 79.734375 203.304688 79.472656 204.703125 79.417969 206.097656 C 79.222656 208.226562 79.125 210.355469 78.992188 212.496094 C 78.90625 213.917969 78.804688 215.339844 78.710938 216.761719 C 78.679688 217.230469 78.578125 217.765625 78.582031 218.257812 C 78.59375 218.214844 78.613281 218.316406 78.589844 218.523438 C 78.589844 218.535156 78.589844 218.546875 78.589844 218.558594 C 78.589844 218.546875 78.589844 218.542969 78.589844 218.53125 C 78.585938 218.550781 78.585938 218.5625 78.582031 218.582031 C 78.523438 218.980469 78.464844 219.382812 78.40625 219.78125 C 78.234375 220.941406 78.101562 222.085938 77.964844 223.230469 C 73.726562 224.5 69.488281 225.796875 65.195312 226.875 C 62.570312 227.535156 60.074219 228.234375 57.523438 229.128906 C 56.5625 229.464844 55.601562 229.878906 54.609375 230.113281 C 53.105469 230.464844 51.574219 230.730469 50.058594 231.039062 C 47.660156 231.527344 45.398438 232.503906 43.09375 233.316406 C 41.011719 234.050781 38.863281 234.613281 36.753906 235.265625 C 34.523438 235.957031 32.3125 236.738281 30.054688 237.34375 C 27.558594 238.015625 25.121094 238.585938 22.765625 239.648438 C 21.421875 240.253906 20.011719 240.789062 18.710938 241.476562 C 18.507812 241.558594 18.308594 241.640625 18.109375 241.722656 C 17.304688 242.054688 16.5 242.386719 15.695312 242.71875 C 13.25 243.722656 10.851562 244.804688 8.449219 245.90625 C 8.042969 246.089844 7.640625 246.273438 7.238281 246.457031 C 6.28125 246.898438 6.28125 248.554688 7.238281 248.992188 C 8.96875 249.785156 10.6875 250.617188 12.4375 251.371094 C 10.761719 252.066406 9.09375 252.78125 7.445312 253.554688 C 7.023438 253.757812 6.597656 253.957031 6.171875 254.15625 C 5.140625 254.640625 5.296875 256.164062 6.171875 256.691406 C 7.136719 257.273438 8.101562 257.851562 9.066406 258.433594 C 9.914062 258.945312 10.757812 259.574219 11.683594 259.929688 C 13.621094 260.667969 15.59375 261.335938 17.5625 261.996094 C 21.617188 263.355469 25.683594 264.503906 29.8125 265.617188 C 31.917969 266.1875 33.992188 266.789062 36.132812 267.183594 C 38.371094 267.597656 40.5625 268.015625 42.761719 268.59375 C 47.027344 269.707031 51.183594 271.125 55.484375 272.109375 C 59.867188 273.117188 64.226562 274.222656 68.597656 275.285156 C 69.378906 276.019531 70.394531 275.609375 70.828125 274.875 C 70.832031 274.871094 70.835938 274.863281 70.839844 274.859375 C 70.859375 274.824219 70.878906 274.789062 70.898438 274.75 C 71.320312 273.996094 71.164062 272.90625 70.089844 272.632812 C 69.441406 271.972656 68.796875 271.316406 68.148438 270.65625 C 67.488281 269.988281 66.824219 269.070312 66 268.601562 C 64.828125 267.9375 63.476562 267.480469 62.242188 266.933594 C 61.429688 266.574219 60.625 266.195312 59.796875 265.875 C 57.769531 265.085938 55.710938 264.378906 53.707031 263.535156 C 51.679688 262.679688 49.679688 261.679688 47.558594 261.097656 C 45.394531 260.503906 43.230469 259.984375 41.144531 259.164062 C 39.046875 258.339844 36.953125 257.515625 34.855469 256.707031 C 32.703125 255.875 30.652344 255.140625 28.429688 254.542969 C 27.738281 254.359375 27.046875 254.175781 26.351562 253.988281 C 26.078125 253.914062 25.808594 253.832031 25.535156 253.769531 C 25.421875 253.742188 25.167969 253.65625 25.144531 253.660156 C 24.160156 253.238281 23.1875 252.769531 22.210938 252.328125 C 21.523438 252.019531 20.828125 251.730469 20.136719 251.429688 C 20.519531 251.277344 20.902344 251.132812 21.28125 250.976562 C 23.679688 250 26.082031 249.035156 28.488281 248.078125 C 30.46875 247.289062 32.53125 246.390625 34.597656 245.878906 C 36.101562 245.507812 37.632812 245.222656 39.148438 244.894531 C 40.144531 244.679688 41.003906 244.300781 41.945312 243.898438 C 43.136719 243.390625 44.324219 242.808594 45.542969 242.347656 C 45.542969 242.355469 45.625 242.339844 45.789062 242.300781 C 46.117188 242.226562 46.441406 242.125 46.765625 242.035156 C 47.636719 241.796875 48.507812 241.5625 49.382812 241.324219 C 53.859375 240.105469 58.144531 238.113281 62.683594 237.113281 C 64.246094 236.769531 65.804688 236.425781 67.363281 236.082031 C 68.3125 235.871094 69.1875 235.449219 70.085938 235.085938 C 71.203125 234.632812 72.316406 234.105469 73.460938 233.726562 C 74.882812 233.257812 76.351562 232.90625 77.792969 232.496094 C 78.242188 232.367188 78.691406 232.242188 79.140625 232.113281 C 79.796875 231.925781 80.171875 231.351562 80.214844 230.699219 C 80.320312 229.175781 80.425781 227.652344 80.53125 226.128906 C 80.558594 225.777344 80.582031 225.425781 80.605469 225.074219 C 80.726562 224.859375 80.8125 224.613281 80.847656 224.339844 C 81.023438 222.960938 81.203125 221.585938 81.378906 220.207031 C 81.457031 219.609375 81.550781 219.011719 81.613281 218.414062 C 81.652344 218.140625 81.6875 217.867188 81.726562 217.597656 C 81.941406 216.03125 82.160156 214.46875 82.371094 212.90625 C 82.535156 211.730469 82.410156 210.511719 82.386719 209.324219 C 82.367188 208.238281 82.261719 207.125 82.359375 206.042969 C 82.511719 204.414062 82.757812 202.789062 82.957031 201.167969 C 83.238281 198.902344 83.191406 196.601562 83.339844 194.328125 C 83.5 191.902344 83.8125 189.488281 83.832031 187.058594 C 83.839844 186.0625 83.835938 185.066406 83.84375 184.070312 C 83.894531 183.378906 83.957031 182.683594 83.992188 181.992188 C 84.152344 178.863281 84.214844 175.738281 84.257812 172.613281 C 84.320312 171.980469 84.382812 171.34375 84.4375 170.703125 C 84.582031 169.050781 84.410156 167.375 84.351562 165.707031 C 84.359375 165.316406 84.363281 164.921875 84.371094 164.527344 C 84.421875 162.015625 84.589844 159.511719 84.5625 157 C 84.539062 155.015625 84.472656 153.046875 84.386719 151.078125 C 84.789062 151.601562 85.203125 152.113281 85.636719 152.601562 C 86.71875 153.820312 87.824219 155.019531 88.945312 156.207031 C 89.703125 157.085938 90.453125 157.972656 91.1875 158.878906 C 91.695312 159.511719 92.203125 160.144531 92.714844 160.773438 C 92.746094 160.8125 92.824219 160.914062 92.882812 160.992188 C 92.9375 161.074219 93 161.164062 93.019531 161.195312 C 93.929688 162.527344 94.839844 163.855469 95.75 165.183594 C 96.992188 167 98.40625 168.6875 99.679688 170.476562 C 101.128906 172.511719 102.472656 174.609375 103.984375 176.597656 C 105.644531 178.773438 107.183594 180.933594 108.675781 183.226562 C 110.082031 185.390625 111.34375 187.636719 112.71875 189.820312 C 113.863281 191.632812 115.507812 193.214844 116.460938 195.136719 C 117.171875 196.578125 117.847656 198.039062 118.542969 199.488281 C 119.007812 200.457031 119.707031 201.230469 120.375 202.070312 C 120.929688 202.773438 121.488281 203.472656 122.042969 204.175781 C 122.230469 204.414062 122.417969 204.648438 122.605469 204.886719 C 122.917969 205.277344 122.601562 205.003906 122.589844 204.871094 C 122.636719 205.359375 123.179688 206.058594 123.398438 206.496094 C 123.796875 207.300781 124.195312 208.101562 124.59375 208.90625 C 124.714844 209.152344 124.835938 209.398438 124.957031 209.640625 C 125.023438 210.011719 125.210938 210.351562 125.523438 210.570312 C 125.878906 210.902344 126.34375 210.957031 126.769531 210.820312 C 128.675781 210.824219 130.582031 210.824219 132.488281 210.832031 C 134.519531 210.84375 136.589844 210.992188 138.617188 210.871094 C 140.679688 210.746094 142.757812 210.316406 144.8125 210.035156 C 144.8125 210.035156 144.804688 210.039062 144.804688 210.039062 C 144.878906 210.09375 145.140625 210.0625 145.226562 210.070312 C 145.863281 210.117188 146.5 210.164062 147.136719 210.210938 C 148.351562 210.300781 149.570312 210.421875 150.789062 210.480469 C 154.804688 210.679688 158.851562 210.464844 162.867188 210.410156 C 164.851562 210.386719 166.867188 210.652344 168.847656 210.789062 C 168.980469 210.796875 169.195312 210.855469 169.324219 210.820312 C 169.734375 210.875 170.144531 210.929688 170.550781 210.988281 C 171.890625 211.171875 173.226562 211.355469 174.5625 211.539062 C 176.472656 211.800781 178.421875 211.628906 180.355469 211.59375 C 180.140625 211.777344 179.917969 211.960938 179.707031 212.148438 C 176.71875 214.777344 173.964844 217.75 171.164062 220.574219 C 169.773438 221.976562 168.480469 223.476562 167.148438 224.933594 C 165.828125 226.378906 164.359375 227.691406 162.949219 229.050781 C 160.152344 231.75 157.421875 234.515625 154.703125 237.292969 C 152.316406 239.726562 150.09375 242.296875 147.945312 244.933594 C 147.121094 245.867188 146.324219 246.835938 145.53125 247.761719 C 144.800781 248.617188 145.011719 249.402344 145.265625 250.328125 C 145.414062 250.988281 145.609375 251.65625 145.734375 252.265625 C 145.914062 253.152344 146.03125 254.09375 146.289062 254.960938 C 146.507812 255.707031 146.835938 256.441406 147.152344 257.167969 C 147.515625 258.296875 147.898438 259.417969 148.257812 260.542969 C 148.902344 262.558594 150.078125 264.414062 151.042969 266.289062 C 151.160156 266.519531 151.273438 266.769531 151.402344 267.003906 C 151.355469 266.890625 151.386719 266.878906 151.449219 267.082031 C 151.453125 267.089844 151.457031 267.097656 151.457031 267.109375 C 151.480469 267.144531 151.496094 267.183594 151.519531 267.214844 C 151.492188 267.179688 151.480469 267.152344 151.464844 267.121094 C 151.53125 267.332031 151.609375 267.539062 151.679688 267.742188 C 152.136719 269.054688 152.59375 270.367188 153.050781 271.679688 C 153.746094 273.671875 154.660156 275.574219 155.511719 277.5 C 156.3125 279.304688 157.085938 281.121094 157.863281 282.9375 C 158.078125 283.441406 158.292969 283.949219 158.511719 284.453125 C 158.519531 284.46875 158.53125 284.5 158.542969 284.535156 C 158.570312 284.617188 158.605469 284.707031 158.617188 284.742188 C 159.066406 285.980469 159.539062 287.214844 160.003906 288.449219 C 160.96875 291.035156 162.035156 293.582031 163.164062 296.097656 C 162.152344 295.265625 161.132812 294.445312 160.09375 293.652344 C 158.1875 292.191406 156.3125 290.765625 154.308594 289.449219 C 153.660156 289.019531 153.011719 288.59375 152.359375 288.164062 C 152.148438 288.023438 151.941406 287.875 151.722656 287.746094 C 151.707031 287.734375 151.699219 287.730469 151.683594 287.722656 C 150.746094 286.828125 149.644531 286.050781 148.644531 285.230469 C 145.117188 282.328125 140.988281 280.265625 137.195312 277.738281 C 135.492188 276.605469 133.886719 275.316406 132.191406 274.171875 C 130.308594 272.898438 128.410156 271.65625 126.539062 270.371094 C 124.203125 268.769531 121.886719 267.277344 119.445312 265.847656 C 118.949219 265.554688 118.394531 265.101562 117.847656 264.910156 C 118.132812 265.011719 118.179688 265.179688 117.851562 264.917969 C 117.585938 264.703125 117.320312 264.492188 117.054688 264.28125 C 115.925781 263.382812 114.796875 262.488281 113.667969 261.589844 C 112.945312 261.015625 111.882812 260.992188 111.367188 261.886719 C 108.578125 266.726562 105.632812 271.464844 102.71875 276.230469 C 101.503906 278.21875 100.820312 280.496094 99.648438 282.503906 C 98.789062 283.972656 97.855469 285.402344 96.964844 286.847656 C 96.351562 287.835938 95.96875 288.960938 95.507812 290.027344 C 94.378906 292.648438 93.171875 295.222656 91.894531 297.78125 C 90.851562 299.875 89.390625 301.75 88.363281 303.855469 C 87.046875 306.542969 85.707031 309.191406 84.277344 311.820312 C 83.757812 312.78125 83.253906 313.71875 82.808594 314.714844 C 82.414062 315.582031 82.023438 316.453125 81.628906 317.320312 C 81.472656 317.671875 80.828125 318.601562 80.871094 318.996094 C 80.855469 318.828125 81.171875 318.597656 80.871094 318.996094 C 80.859375 319.015625 80.851562 319.023438 80.835938 319.042969 C 80.601562 319.347656 80.363281 319.652344 80.128906 319.957031 C 79.535156 320.71875 78.941406 321.484375 78.34375 322.246094 C 77.976562 322.71875 77.507812 323.199219 77.203125 323.71875 C 76.917969 324.210938 76.757812 324.839844 76.550781 325.367188 C 76.203125 326.265625 75.855469 327.164062 75.503906 328.0625 C 75.425781 328.261719 75.351562 328.460938 75.273438 328.65625 C 74.886719 329.28125 74.5 329.90625 74.113281 330.527344 C 74.09375 330.242188 74.070312 329.957031 74.050781 329.671875 C 73.949219 328.203125 74.042969 326.738281 74.085938 325.261719 C 74.140625 323.34375 74.039062 321.445312 73.945312 319.542969 C 74.070312 318.378906 74.199219 317.199219 74.152344 316.058594 C 74.113281 315.066406 73.992188 314.078125 73.867188 313.089844 C 73.890625 312.128906 73.917969 311.167969 73.910156 310.207031 C 73.902344 309.074219 73.78125 307.933594 73.664062 306.796875 C 73.703125 306.300781 73.742188 305.804688 73.765625 305.320312 C 73.875 303.28125 73.527344 301.289062 73.277344 299.28125 C 73.269531 298.382812 73.265625 297.488281 73.265625 296.59375 C 73.265625 294.738281 73.394531 292.832031 73.242188 290.980469 C 73.132812 289.644531 72.972656 288.304688 72.8125 286.96875 C 72.800781 286.296875 72.785156 285.628906 72.777344 284.957031 C 72.761719 284.089844 72.140625 283.625 71.472656 283.554688 C 71.359375 283.523438 71.238281 283.503906 71.109375 283.5 C 70.386719 283.492188 69.558594 284.183594 69.644531 284.96875 C 69.722656 285.675781 69.800781 286.382812 69.878906 287.089844 C 69.921875 289.746094 69.972656 292.40625 70.058594 295.0625 C 70.097656 296.351562 70.179688 297.585938 70.320312 298.851562 C 70.320312 300.578125 70.347656 302.304688 70.472656 304.015625 C 70.542969 304.953125 70.640625 305.886719 70.734375 306.824219 C 70.660156 307.835938 70.589844 308.84375 70.601562 309.851562 C 70.613281 311.082031 70.785156 312.332031 70.945312 313.566406 C 70.929688 314.027344 70.917969 314.484375 70.910156 314.941406 C 70.890625 316.285156 70.972656 317.625 71.054688 318.96875 C 70.925781 320.519531 70.753906 322.074219 70.8125 323.636719 C 70.964844 327.507812 71.199219 331.359375 71.46875 335.226562 C 71.570312 336.675781 73.386719 337.226562 74.199219 335.96875 C 75.378906 334.148438 76.667969 332.394531 77.625 330.464844 C 79.15625 328.011719 80.679688 325.558594 82.152344 323.070312 C 84.679688 318.804688 87.484375 314.660156 90.382812 310.640625 C 91.820312 308.644531 93.402344 306.765625 94.664062 304.652344 C 96.105469 302.238281 97.574219 299.925781 99.179688 297.617188 C 100.652344 295.503906 102.144531 293.335938 103.386719 291.078125 C 103.410156 291.035156 103.425781 291.007812 103.4375 290.984375 C 103.539062 290.855469 103.640625 290.730469 103.742188 290.601562 C 104.269531 289.9375 104.796875 289.273438 105.328125 288.609375 C 106.019531 287.734375 106.855469 286.875 107.386719 285.890625 C 108.65625 283.527344 109.734375 281.164062 111.230469 278.9375 C 112.742188 276.683594 114.066406 274.425781 115.375 272.058594 C 116.625 273.074219 117.875 274.097656 119.183594 275.015625 C 121.070312 276.332031 122.992188 277.601562 124.925781 278.847656 C 126.996094 280.1875 129.058594 281.523438 131.097656 282.910156 C 131.761719 283.363281 132.429688 283.820312 133.097656 284.273438 C 133.3125 284.421875 133.527344 284.578125 133.75 284.71875 C 133.773438 284.734375 133.78125 284.738281 133.796875 284.746094 C 134.835938 285.609375 135.914062 286.421875 136.972656 287.257812 C 138.90625 288.789062 140.863281 290.289062 142.8125 291.796875 C 143.519531 292.34375 144.296875 292.765625 145.066406 293.226562 C 145.785156 293.652344 146.503906 294.082031 147.222656 294.511719 C 147.519531 294.691406 147.875 294.980469 148.21875 295.140625 C 148.121094 295.078125 148.179688 295.054688 148.382812 295.210938 C 148.390625 295.214844 148.40625 295.222656 148.414062 295.222656 C 148.402344 295.21875 148.398438 295.214844 148.382812 295.210938 C 148.394531 295.222656 148.402344 295.222656 148.414062 295.234375 C 148.65625 295.429688 148.898438 295.625 149.140625 295.824219 C 149.789062 296.347656 150.4375 296.871094 151.082031 297.398438 C 151.847656 298.015625 152.601562 298.660156 153.402344 299.234375 C 154.640625 300.121094 155.878906 301.007812 157.117188 301.894531 C 157.320312 302.039062 157.523438 302.1875 157.726562 302.328125 C 157.777344 302.363281 157.808594 302.382812 157.832031 302.398438 C 158.226562 302.703125 158.617188 303.007812 159.007812 303.3125 C 160.992188 304.847656 162.925781 306.394531 164.828125 308.027344 C 166.726562 309.652344 168.453125 311.375 170.210938 313.152344 C 170.5 313.445312 170.785156 313.734375 171.074219 314.023438 C 172.03125 314.988281 174.113281 314.007812 173.523438 312.597656 C 172.40625 309.921875 171.339844 307.203125 170.210938 304.515625 C 170.554688 304.191406 170.726562 303.714844 170.503906 303.164062 C 168.980469 299.375 167.445312 295.613281 165.730469 291.90625 C 165.730469 291.902344 165.730469 291.902344 165.726562 291.898438 C 165.714844 291.863281 165.703125 291.824219 165.679688 291.761719 C 165.488281 291.214844 165.285156 290.675781 165.085938 290.132812 C 164.667969 288.988281 164.261719 287.839844 163.828125 286.699219 C 163.109375 284.804688 162.191406 282.972656 161.367188 281.125 C 160.582031 279.363281 159.632812 277.664062 158.757812 275.945312 C 157.886719 274.230469 157.152344 272.4375 156.359375 270.683594 C 154.777344 267.171875 153.269531 263.65625 151.585938 260.191406 C 151.480469 259.972656 151.011719 258.902344 151.3125 259.667969 C 151.15625 259.265625 150.992188 258.871094 150.832031 258.472656 C 150.59375 257.875 150.351562 257.28125 150.109375 256.6875 C 149.964844 256.246094 149.816406 255.800781 149.675781 255.359375 C 149.132812 253.652344 148.695312 251.910156 148.253906 250.171875 C 148.207031 249.902344 148.164062 249.636719 148.117188 249.371094 C 148.546875 248.832031 148.980469 248.289062 149.414062 247.753906 C 150.082031 246.988281 150.753906 246.230469 151.453125 245.496094 C 152.726562 244.164062 154.3125 243.054688 155.722656 241.867188 C 158.40625 239.613281 160.929688 237.246094 163.292969 234.660156 C 164.484375 233.359375 165.609375 232.214844 166.953125 231.082031 C 168.3125 229.9375 169.6875 228.824219 170.96875 227.59375 C 173.683594 224.984375 176.402344 222.382812 179.316406 219.992188 C 180.921875 218.671875 182.652344 217.503906 184.230469 216.152344 C 185.828125 214.789062 187.324219 213.289062 188.867188 211.859375 C 189.890625 210.910156 188.996094 209.484375 187.828125 209.355469 C 187.746094 209.34375 187.664062 209.332031 187.582031 209.324219 C 188.769531 208.253906 189.933594 207.164062 191.113281 206.089844 C 192.109375 205.179688 191.269531 203.65625 190.074219 203.585938 Z M 25.121094 256.699219 C 27.261719 257.269531 29.4375 257.746094 31.507812 258.546875 C 35.6875 260.160156 39.824219 262.023438 44.148438 263.207031 C 45.347656 263.535156 46.589844 263.800781 47.769531 264.199219 C 48.660156 264.5 49.523438 264.929688 50.386719 265.292969 C 52.480469 266.175781 54.574219 267.015625 56.699219 267.824219 C 57.4375 268.105469 58.179688 268.394531 58.921875 268.667969 C 59.042969 268.714844 59.164062 268.773438 59.289062 268.808594 C 59.257812 268.800781 59.242188 268.796875 59.214844 268.789062 C 59.25 268.800781 59.285156 268.8125 59.316406 268.828125 C 60.796875 269.492188 62.285156 270.144531 63.769531 270.800781 C 63.953125 270.882812 64.226562 271.066406 64.4375 271.109375 C 64.46875 271.160156 64.503906 271.210938 64.542969 271.261719 C 62.417969 270.734375 60.292969 270.210938 58.164062 269.71875 C 56.113281 269.238281 54.007812 268.878906 51.996094 268.246094 C 49.949219 267.601562 47.910156 266.90625 45.832031 266.363281 C 43.726562 265.808594 41.640625 265.226562 39.5 264.832031 C 37.328125 264.429688 35.207031 264.035156 33.078125 263.457031 C 28.824219 262.3125 24.566406 261.230469 20.386719 259.84375 C 17.964844 259.042969 15.5625 258.191406 13.160156 257.34375 C 12.980469 257.28125 12.800781 257.207031 12.617188 257.148438 C 12.613281 257.148438 12.613281 257.148438 12.609375 257.144531 C 12.175781 256.738281 11.484375 256.464844 10.980469 256.160156 C 10.65625 255.964844 10.335938 255.773438 10.011719 255.578125 C 10.460938 255.367188 10.90625 255.15625 11.355469 254.945312 C 11.8125 254.730469 12.289062 254.535156 12.734375 254.296875 C 12.597656 254.359375 12.5 254.386719 12.734375 254.296875 C 12.769531 254.28125 12.808594 254.265625 12.84375 254.246094 C 12.808594 254.265625 12.773438 254.28125 12.738281 254.296875 C 12.753906 254.292969 12.765625 254.289062 12.785156 254.28125 C 13.089844 254.171875 13.390625 254.050781 13.695312 253.9375 C 14.558594 253.613281 15.414062 253.28125 16.273438 252.949219 C 16.484375 253.035156 16.695312 253.121094 16.90625 253.207031 C 17.417969 253.414062 17.929688 253.628906 18.445312 253.835938 C 18.425781 253.824219 18.40625 253.816406 18.386719 253.804688 C 18.425781 253.824219 18.460938 253.839844 18.5 253.855469 C 18.511719 253.859375 18.523438 253.867188 18.535156 253.871094 C 18.746094 253.953125 18.703125 253.941406 18.601562 253.902344 C 18.683594 253.9375 18.769531 253.976562 18.851562 254.015625 C 20.894531 254.9375 22.949219 256.117188 25.121094 256.699219 Z M 77.394531 229.097656 C 77.386719 229.25 77.375 229.402344 77.363281 229.554688 C 75.449219 230.070312 73.511719 230.550781 71.679688 231.292969 C 70.238281 231.878906 68.808594 232.535156 67.34375 233.050781 C 66.3125 233.414062 65.171875 233.5625 64.105469 233.796875 C 61.503906 234.371094 59.003906 235.132812 56.453125 235.917969 C 54.367188 236.558594 52.347656 237.410156 50.257812 238.042969 C 47.816406 238.78125 45.355469 239.273438 43.003906 240.277344 C 41.742188 240.816406 40.488281 241.390625 39.214844 241.902344 C 39.191406 241.902344 39.152344 241.902344 39.089844 241.910156 C 38.796875 241.941406 38.496094 242.039062 38.210938 242.101562 C 37.351562 242.285156 36.496094 242.472656 35.636719 242.65625 C 31.054688 243.648438 26.667969 245.640625 22.332031 247.402344 C 20.316406 248.21875 18.296875 249.011719 16.28125 249.808594 C 15.789062 249.609375 15.300781 249.40625 14.808594 249.207031 C 14.570312 249.105469 14.328125 249.007812 14.085938 248.910156 C 14.082031 248.910156 14.082031 248.910156 14.078125 248.90625 C 14.097656 248.917969 14.105469 248.917969 14.125 248.929688 C 14.101562 248.917969 14.078125 248.910156 14.058594 248.898438 C 13.90625 248.835938 13.84375 248.800781 13.867188 248.808594 C 13.40625 248.585938 12.925781 248.382812 12.460938 248.167969 C 12.136719 248.019531 11.8125 247.871094 11.488281 247.722656 C 11.742188 247.609375 11.996094 247.492188 12.25 247.375 C 12.875 247.089844 13.5 246.816406 14.117188 246.519531 C 14.148438 246.503906 14.167969 246.496094 14.191406 246.488281 C 14.3125 246.433594 14.4375 246.382812 14.5625 246.332031 C 16.953125 245.351562 19.351562 244.390625 21.707031 243.328125 C 23 242.746094 24.320312 242.203125 25.59375 241.574219 C 25.605469 241.574219 25.609375 241.578125 25.625 241.574219 C 25.867188 241.546875 26.132812 241.4375 26.371094 241.375 C 27.15625 241.164062 27.945312 240.949219 28.730469 240.738281 C 31.265625 240.058594 33.757812 239.285156 36.261719 238.496094 C 38.601562 237.757812 40.960938 237.078125 43.300781 236.335938 C 45.382812 235.679688 47.390625 234.714844 49.492188 234.144531 C 51.6875 233.542969 54.039062 233.453125 56.191406 232.699219 C 58.589844 231.855469 60.949219 230.96875 63.414062 230.347656 C 68.191406 229.148438 72.914062 227.789062 77.636719 226.386719 C 77.554688 227.289062 77.457031 228.183594 77.394531 229.097656 Z M 166.234375 302.789062 C 166.597656 303.617188 166.960938 304.453125 167.3125 305.292969 C 167.550781 305.859375 167.789062 306.421875 168.03125 306.988281 C 166.441406 305.53125 164.804688 304.117188 163.082031 302.78125 C 161.058594 301.21875 159.042969 299.675781 156.964844 298.1875 C 156.339844 297.742188 155.710938 297.292969 155.085938 296.84375 C 154.9375 296.738281 154.792969 296.617188 154.636719 296.519531 C 153.507812 295.582031 152.355469 294.671875 151.214844 293.746094 C 149.320312 292.210938 147.171875 291.089844 145.09375 289.824219 C 144.289062 289.332031 143.570312 288.703125 142.824219 288.128906 C 142.179688 287.628906 141.535156 287.132812 140.890625 286.632812 C 140.683594 286.472656 140.476562 286.3125 140.273438 286.15625 C 140.050781 285.984375 140.09375 286.011719 140.1875 286.085938 C 136.566406 283.09375 132.753906 280.414062 128.8125 277.867188 C 126.710938 276.511719 124.628906 275.144531 122.554688 273.75 C 121.976562 273.363281 121.402344 272.964844 120.820312 272.585938 C 120.804688 272.574219 120.785156 272.5625 120.761719 272.546875 C 120.695312 272.5 120.542969 272.398438 120.496094 272.359375 C 119.292969 271.410156 118.085938 270.460938 116.882812 269.511719 C 116.578125 269.273438 116.273438 269.03125 115.96875 268.792969 C 115.257812 268.230469 114.167969 268.183594 113.667969 269.089844 C 112.527344 271.160156 111.480469 273.316406 110.164062 275.277344 C 109.273438 276.601562 108.332031 277.902344 107.492188 279.257812 C 106.898438 280.203125 106.449219 281.261719 105.945312 282.257812 C 105.582031 282.976562 105.191406 283.683594 104.855469 284.410156 C 104.804688 284.519531 104.757812 284.617188 104.738281 284.667969 C 104.683594 284.734375 104.632812 284.800781 104.578125 284.867188 C 103.554688 286.15625 102.527344 287.445312 101.503906 288.734375 C 100.070312 290.535156 99.035156 292.632812 97.757812 294.542969 C 96.363281 296.625 94.855469 298.613281 93.570312 300.761719 C 93.117188 301.519531 92.679688 302.289062 92.226562 303.054688 C 92.785156 302.074219 93.355469 301.097656 93.949219 300.117188 C 95.125 298.152344 96.097656 295.988281 97.011719 293.890625 C 97.695312 292.320312 98.367188 290.746094 99.046875 289.171875 C 99.515625 288.085938 100.253906 287.101562 100.875 286.097656 C 101.472656 285.128906 102.121094 284.183594 102.605469 283.152344 C 103.320312 281.625 103.988281 280.070312 104.75 278.566406 C 105.820312 276.460938 107.214844 274.480469 108.464844 272.472656 C 110.03125 269.953125 111.554688 267.425781 113.039062 264.859375 C 114.25 265.878906 115.472656 266.921875 116.8125 267.707031 C 118.820312 268.882812 120.839844 270.011719 122.757812 271.328125 C 126.722656 274.046875 130.722656 276.699219 134.628906 279.496094 C 136.503906 280.835938 138.496094 281.996094 140.449219 283.214844 C 141.21875 283.695312 141.984375 284.1875 142.75 284.671875 C 143.40625 285.089844 144.0625 285.507812 144.722656 285.925781 C 144.933594 286.0625 145.144531 286.210938 145.363281 286.332031 C 145.386719 286.347656 145.394531 286.351562 145.410156 286.359375 C 148.722656 289.550781 152.789062 291.726562 156.414062 294.503906 C 157.148438 295.0625 157.878906 295.625 158.613281 296.1875 C 158.839844 296.359375 159.066406 296.535156 159.292969 296.707031 C 159.296875 296.707031 159.292969 296.707031 159.296875 296.710938 C 160.359375 297.777344 161.667969 298.671875 162.828125 299.628906 C 164.023438 300.613281 165.132812 301.695312 166.234375 302.789062 Z M 182.160156 214.078125 C 181.6875 214.480469 181.199219 214.863281 180.710938 215.242188 C 180.90625 215.054688 181.105469 214.863281 181.300781 214.671875 C 182.3125 213.691406 183.421875 212.8125 184.527344 211.929688 C 183.75 212.660156 182.96875 213.386719 182.160156 214.078125 Z M 184.410156 208.242188 C 184.179688 208.445312 183.941406 208.640625 183.707031 208.839844 C 183.019531 208.761719 182.332031 208.691406 181.644531 208.65625 C 180.722656 208.609375 179.78125 208.675781 178.855469 208.6875 C 178.140625 208.695312 177.425781 208.703125 176.710938 208.710938 C 176.445312 208.714844 175.714844 208.578125 175.5 208.726562 C 175.496094 208.726562 175.5 208.726562 175.5 208.730469 C 175.363281 208.710938 175.222656 208.691406 175.082031 208.671875 C 174.421875 208.582031 173.765625 208.492188 173.105469 208.402344 C 172 208.25 170.890625 208.09375 169.785156 207.945312 C 167.675781 207.660156 165.480469 207.550781 163.355469 207.476562 C 161.335938 207.410156 159.296875 207.566406 157.277344 207.59375 C 155.277344 207.621094 153.273438 207.585938 151.273438 207.558594 C 149.28125 207.535156 147.273438 207.285156 145.285156 207.140625 C 144.5625 207.085938 143.863281 207.226562 143.144531 207.324219 C 141.773438 207.507812 140.402344 207.695312 139.035156 207.882812 C 138.878906 207.902344 138.722656 207.925781 138.566406 207.945312 C 138.558594 207.941406 138.554688 207.9375 138.542969 207.933594 C 138.113281 207.78125 137.316406 207.925781 136.871094 207.925781 C 135.484375 207.917969 134.097656 207.90625 132.707031 207.898438 C 130.925781 207.890625 129.144531 207.890625 127.363281 207.886719 C 126.445312 205.957031 125.59375 203.960938 124.273438 202.296875 C 123.300781 201.070312 122.335938 199.84375 121.359375 198.621094 C 121.363281 198.625 121.371094 198.628906 121.371094 198.625 C 121.375 198.457031 121.113281 198.085938 121.042969 197.945312 C 120.675781 197.171875 120.304688 196.398438 119.9375 195.628906 C 119.492188 194.703125 119.121094 193.71875 118.515625 192.886719 C 117.570312 191.578125 116.625 190.273438 115.679688 188.964844 C 114.394531 187.1875 113.414062 185.1875 112.242188 183.335938 C 111.285156 181.828125 110.324219 180.320312 109.304688 178.855469 C 109.628906 179.246094 109.949219 179.640625 110.277344 180.027344 C 111.101562 181 111.933594 181.960938 112.761719 182.929688 C 113.222656 183.46875 113.671875 184.015625 114.144531 184.542969 C 114.15625 184.558594 114.15625 184.558594 114.167969 184.574219 C 114.144531 184.539062 114.117188 184.503906 114.09375 184.460938 C 114.121094 184.503906 114.152344 184.542969 114.179688 184.585938 C 114.292969 184.714844 114.273438 184.707031 114.207031 184.625 C 114.273438 184.726562 114.34375 184.824219 114.410156 184.921875 C 115.863281 187.054688 117.226562 189.210938 118.933594 191.148438 C 119.855469 192.195312 120.734375 193.433594 121.769531 194.378906 C 121.855469 194.609375 122.039062 194.835938 122.160156 195.046875 C 122.578125 195.761719 122.996094 196.476562 123.414062 197.191406 C 124.714844 199.421875 125.996094 201.664062 127.273438 203.910156 C 127.480469 204.273438 127.6875 204.636719 127.894531 205 C 128.230469 205.585938 128.765625 205.769531 129.277344 205.691406 C 137.308594 205.339844 145.324219 205.035156 153.363281 205 C 157.378906 204.980469 161.355469 204.722656 165.367188 204.578125 C 167.339844 204.507812 169.371094 204.808594 171.34375 204.941406 C 173.328125 205.074219 175.3125 205.292969 177.292969 205.476562 C 180.398438 205.757812 183.484375 206.046875 186.582031 206.28125 C 185.863281 206.941406 185.144531 207.597656 184.410156 208.242188 Z M 184.410156 208.242188 " fill-opacity="1" fill-rule="nonzero"/></g></svg>